<?xml version="1.0" standalone="no"?>
<!DOCTYPE svg PUBLIC "-//W3C//DTD SVG 1.1//EN" "http://www.w3.org/Graphics/SVG/1.1/DTD/svg11.dtd" >
<svg xmlns="http://www.w3.org/2000/svg">
<metadata>
<json>
<![CDATA[
{
	"fontFamily": "img-global-infotech-icons",
	"majorVersion": 1,
	"minorVersion": 0,
	"fontURL": "https://www.icons.imgglobalinfotech.com",
	"description": "IMG Global Infotech Pvt. Ltd.\nFont generated by IcoMoon.",
	"copyright": "IMG Global Infotech Pvt. Ltd.",
	"designer": "Jitendra Kumar Bijarnia",
	"designerURL": "https://www.facebook.com/profile.php?id=100021017672268",
	"license": "IMG Global Infotech Pvt. Ltd.",
	"licenseURL": "https://www.imgglobalinfotech.com",
	"version": "Version 1.0",
	"fontId": "img-global-infotech-icons",
	"psName": "img-global-infotech-icons",
	"subFamily": "Regular",
	"fullName": "img-global-infotech-icons"
}
]]>
</json>
</metadata>
<defs>
<font id="img-global-infotech-icons" horiz-adv-x="1024">
<font-face units-per-em="1024" ascent="960" descent="-64" />
<missing-glyph horiz-adv-x="1024" />
<glyph unicode="&#x20;" horiz-adv-x="512" d="" />
<glyph unicode="&#xe000;" glyph-name="caravan-alt" data-tags="caravan-alt" horiz-adv-x="1280" d="M832 768c35.322 0 64-28.678 64-64v-128c0-35.322-28.678-64-64-64h-128c-35.322 0-64 28.678-64 64v128c0 35.322 28.678 64 64 64h128zM1248 288c17.662 0 32-14.338 32-32v-32c0-17.662-14.338-32-32-32h-672c0-105.967-86.033-192-192-192s-192 86.033-192 192c-105.967 0-192 86.033-192 192v384c0 105.967 86.033 192 192 192h640c176.613 0 320-143.387 320-320v-352h96zM384 96c52.959 0.055 95.945 43.041 96 96 0 52.984-43.016 96-96 96s-96-43.016-96-96 43.016-96 96-96zM1056 288v352c-0.133 123.568-100.432 223.868-224 224h-640c-52.959-0.055-95.945-43.041-96-96v-384c0.055-52.959 43.041-95.945 96-96h26.619c33.381 57.141 94.5 96 165.381 96s132.1-38.859 165.381-96h506.62zM512 768c35.322 0 64-28.678 64-64v-128c0-35.322-28.678-64-64-64h-256c-35.322 0-64 28.678-64 64v128c0 35.322 28.678 64 64 64h256z" />
<glyph unicode="&#xe001;" glyph-name="cat-space" data-tags="cat-space" horiz-adv-x="1280" d="M896 960c194.273 0 352-157.727 352-352 0-149.188-92.961-276.394-224-327.636v-280.364c-0.014-35.316-28.684-63.986-64-64h-128c-35.316 0.014-63.986 28.684-64 64v172.094l-164-96.469c2.209-14.328 3.475-28.748 3.75-43.625h32.25c35.316-0.014 63.986-28.684 64-64v-0.018c0-17.652-14.33-31.982-31.98-31.982h-368.020c-97.188 0-176 78.594-176 225.406v424.75c0 44.719-33.938 87.094-78.625 85.875-0.467-0.014-0.906-0.020-1.375-0.020-26.488 0-47.994 21.506-47.994 47.994s21.506 47.994 47.994 47.994c97.092-0.098 175.902-78.908 176-176v-186.031c74.473 101.16 187.273 172.883 320.394 194.199-0.059 2.629-0.395 5.188-0.395 7.832 0 194.273 157.727 352 352 352zM896 864c-54.164-0.027-104.631-17.176-145.875-46.125l81.875-81.875h128l81.875 81.875c-41.244 28.949-91.711 46.098-145.875 46.125zM1008 608c0 17.652-14.33 32-31.98 32h-0.020c-17.662 0-32-14.338-32-32s14.338-32 32-32 32 14.338 32 32zM848 608c0 17.652-14.33 32-31.98 32h-0.020c-17.662 0-32-14.338-32-32s14.338-32 32-32 32 14.338 32 32zM574.876 169.844l189.898 111.703c-98.096 39.496-174.127 121.697-205.43 223.652-194.484-31.242-335.344-195.871-335.344-393.2 0.041-44.135 35.865-79.959 80-80h207.438c-1.363 75.242-38.463 141.73-95.25 183.094-13.25 9.594-16.063 28.281-8.125 42.562l14.875 26.781c8.875 16.031 30 22.156 45.062 11.625 45.791-32.182 82.479-75.324 106.875-126.219zM928 32v225.614c-10.75-1.078-20.99-1.633-32.021-1.633-13.508 0-26.824 0.828-39.9 2.438 4.961-9.004 7.85-19.406 7.922-30.387v-196.031h64zM896 352c141.217 0.158 255.842 114.783 256 256 0 64.34-24.668 122.508-64 167.527v-167.527c0-105.967-86.033-192-192-192s-192 86.033-192 192v167.527c-39.332-45.020-64-103.188-64-167.527 0.16-141.217 114.783-255.84 256-256zM293.89 822.46c-3.498 1.752-5.9 5.359-5.9 9.535s2.402 7.795 5.9 9.547l79.422 33.117 33.125 79.426c1.742 3.51 5.352 5.924 9.533 5.924s7.803-2.414 9.545-5.924l33.117-79.426 79.43-33.117c3.498-1.752 5.9-5.359 5.9-9.535s-2.402-7.795-5.9-9.547l-79.43-33.121-33.117-79.422c-1.74-3.512-5.352-5.928-9.533-5.928s-7.805 2.416-9.545 5.928l-33.125 79.422z" />
<glyph unicode="&#xe002;" glyph-name="coffee-pot" data-tags="coffee-pot" d="M856 610c104-80.141 168-203.72 168-339.36-0.039-102.961-37.42-169.541-99.42-235.442-20.787-21.705-50.045-35.199-82.441-35.199h-531.799c-0.133 0-0.26-0.029-0.393-0.029-32.494 0-61.84 13.58-82.668 35.369-62.039 65.881-99.279 132.48-99.279 235.42 0 136.92 65.84 258.8 168.381 338.18l-69.461 191.061h-50.92c-44.152 0-80-35.848-80-80v-176c0-17.662-14.338-32-32-32h-32c-17.662 0-32 14.338-32 32v176c0 97.137 78.863 176 176 176h784zM822.94 800h-493.878l58.18-160h377.52zM228.18 320h695.64c-13.68 91.539-65.18 171.74-139.68 224h-411.72c-75.84-52.18-130.020-131.561-144.24-224z" />
<glyph unicode="&#xe003;" glyph-name="comet" data-tags="comet" d="M616.844 432.124c12.969-1.902 22.969-13.086 22.969-26.578 0-7.5-3.080-14.285-8.043-19.16l-88.508-86.332 20.867-122.023c0.254-1.482 0.359-2.965 0.359-4.52 0-14.775-11.996-26.771-26.771-26.771-4.48 0-8.707 1.104-12.42 3.053l-109.391 57.621-109.391-57.621c-3.717-1.957-7.975-3.104-12.463-3.104-14.77 0-26.76 11.99-26.76 26.76 0 1.563 0.133 3.092 0.391 4.582l20.992 122.023-88.523 86.332c-5.010 4.871-8.094 11.686-8.094 19.219 0 13.469 9.957 24.629 22.906 26.52l122.219 17.844 54.707 111.066c4.355 8.875 13.455 14.99 24 14.99 10.547 0 19.676-6.115 24.031-14.99l54.703-111.066zM1004.7 940.486c11.934-11.84 19.303-28.262 19.303-46.385 0-6.898-1.070-13.549-3.057-19.795-16.996-56.586-58.238-189.385-104.605-306.374 29.020-11.055 49.578-39.203 49.578-72.084 0-12.887-3.172-25.039-8.773-35.717-43.992-84.176-158.594-292.75-272.762-406.738-72.598-72.553-172.951-117.449-283.596-117.449s-210.884 44.896-283.482 117.449c-156.406 156.391-156.406 410.738 0 567.128 114.355 114.205 322.5 228.568 406.922 272.564 10.678 5.582 22.869 8.826 35.742 8.826 32.818 0 60.881-20.518 72.051-49.416 116.539 46.215 249.704 87.582 306.504 104.582 6.139 1.898 12.67 2.947 19.428 2.947 18.281 0 34.828-7.479 46.748-19.541zM861.54 484.54c-11.973 3.33-18.334 5.264-74.801 21.996l21.434 49.809c40.992 95.77 80.359 214.974 104.793 292.56-77.797-24.402-197.398-63.992-292.566-104.801l-49.805-21.373c-13.414 45.934-17.104 58.699-21.996 74.771-79.797-42.59-265.136-146.576-363.304-244.752-118.789-118.988-118.789-312.376 0-431.364 55.182-55.244 131.514-89.438 215.688-89.438s160.424 34.193 215.606 89.438c96.98 96.773 197.148 273.566 244.954 363.152z" />
<glyph unicode="&#xe004;" glyph-name="fan-table" data-tags="fan-table" horiz-adv-x="896" d="M896 512c0-231.2-175.16-421.38-400-445.36v-34.641h176c42.641 0 82.439-27.779 94.961-66.24 4.818-14.82-7.781-29.76-23.342-29.76h-591.218c-15.58 0-28.18 14.939-23.361 29.76 12.541 38.461 52.32 66.24 94.961 66.24h176v34.641c-224.84 23.979-400 214.16-400 445.36 0 247.42 200.58 448 448 448s448-200.58 448-448zM448 160c194.1 0 352 158 352 352s-158 352-352 352-352-157.9-352-352 158-352 352-352zM708.12 427.38l-194.379 32.379c2.047-10.643 3.008-21.676 3.008-32.912 0-31.34-8.336-60.748-22.908-86.127-30.326-52.506-87.148-87.57-152.090-87.57-31.834 0-61.701 8.5-87.449 23.35-13.16 7.58-27.061 31.32-9.541 52.52l125.301 152.201c-106.16 37.68-128.461 143.559-110.76 209.798 12.041 45.48 41.84 83.635 81.738 106.5v0c24.201 13.801 45.061-4.299 50.201-18l68.859-183.879c30.568 25.969 70.248 41.693 113.461 41.693 96.717 0 175.24-78.523 175.24-175.24v-0.213c-0.008-19.301-15.646-34.969-34.947-34.969-1.953 0-3.867 0.16-5.734 0.469zM448 480c17.662 0 32 14.338 32 32s-14.338 32-32 32-32-14.338-32-32 14.338-32 32-32z" />
<glyph unicode="&#xe005;" glyph-name="faucet" data-tags="faucet" d="M736 512c158.801 0 288-129.199 288-288v-64c0-52.984-43.016-96-96-96h-128c-52.984 0-96 43.016-96 96v32h-57.641c-46.92-58.1-117.859-96-198.359-96s-151.439 37.9-198.359 96h-217.64c-17.662 0-32 14.338-32 32v32c0 17.662 14.338 32 32 32h269.5c24.617-56.547 80.857-96.125 146.424-96.125 65.564 0 121.959 39.578 146.576 96.125h141.5c35.322 0 64-28.678 64-64v-64h128v64c-0.109 105.916-86.084 191.891-192 192h-141.5c-24.617 56.547-80.857 96.125-146.424 96.125-65.564 0-121.959-39.578-146.576-96.125h-269.5c-17.662 0-32 14.338-32 32v32c0 17.662 14.338 32 32 32h217.64c37.34 46.221 89.66 79.619 150.359 91.16v61.641s-237.14-24.801-240-24.801c-17.48 0-32 14.961-32 33.779v60.441c0 18.84 14.561 33.779 32 33.779 2.76 0-12.24 1.58 240-26.641v58.641c0 17.662 14.338 32 32 32h32c17.662 0 32-14.338 32-32v-58.641c252.24 28.221 237.2 26.641 240 26.641 17.48 0 32-14.939 32-33.779v-60.441c0-18.818-14.58-33.779-32-33.779-2.801 0-240 24.801-240 24.801v-61.641c60.699-11.541 113.020-44.939 150.359-91.16h89.641z" />
<glyph unicode="&#xe006;" glyph-name="faucet-drip" data-tags="faucet-drip" d="M832 0c0 35.34 64 128 64 128s64-92.66 64-128c0-35.322-28.678-64-64-64s-64 28.678-64 64zM736 640c158.801 0 288-129.199 288-288v-64c0-52.984-43.016-96-96-96h-128c-52.984 0-96 43.016-96 96v32h-57.641c-46.92-58.1-117.859-96-198.359-96s-151.439 37.9-198.359 96h-217.64c-17.662 0-32 14.338-32 32v32c0 17.662 14.338 32 32 32h269.5c24.617-56.547 80.857-96.125 146.424-96.125 65.564 0 121.959 39.578 146.576 96.125h141.5c35.322 0 64-28.678 64-64v-64h128v64c-0.109 105.916-86.084 191.891-192 192h-141.5c-24.617 56.547-80.857 96.125-146.424 96.125-65.564 0-121.959-39.578-146.576-96.125h-269.5c-17.662 0-32 14.338-32 32v32c0 17.662 14.338 32 32 32h217.64c37.34 46.221 89.66 79.619 150.359 91.16v61.641s-237.14-24.801-240-24.801c-17.48 0-32 14.961-32 33.779v60.441c0 18.84 14.561 33.779 32 33.779 2.76 0-12.24 1.58 240-26.641v58.641c0 17.662 14.338 32 32 32h32c17.662 0 32-14.338 32-32v-58.641c252.24 28.221 237.2 26.641 240 26.641 17.48 0 32-14.939 32-33.779v-60.441c0-18.818-14.58-33.779-32-33.779-2.801 0-240 24.801-240 24.801v-61.641c60.699-11.541 113.020-44.939 150.359-91.16h89.641z" />
<glyph unicode="&#xe008;" glyph-name="galaxy" data-tags="galaxy" d="M1012.926 426.176c7.207-30.176 11.063-61.041 11.063-93.41 0-13.635-0.678-27.111-2-40.398-3.742-37.021-35.006-66.084-73.006-66.084-30.311 0-56.355 18.408-67.553 44.646-18.689 43.275-50.984 78.855-91.873 101.654 1.467-14.006 2.201-27.496 2.201-41.887 0-27.334-2.715-54.039-7.889-79.861-29.375-147.090-147.373-269.15-293.62-303.742-30.33-7.188-61.748-11.041-94.25-11.094-0.070 0 0.26-0.014 0.189-0.014-13.439 0-26.721 0.682-39.812 2.014-37.023 3.748-66.086 35.016-66.086 73.021 0 30.289 18.381 56.32 44.586 67.537 43.219 18.662 78.773 50.871 101.623 91.654-13.791-1.43-27.072-2.145-41.238-2.145-27.547 0-54.449 2.771-80.445 8.051-147.061 29.344-269.182 147.34-303.682 293.648-7.246 30.199-11.123 61.104-11.123 93.512 0 13.611 0.676 27.064 1.998 40.33 3.029 33.48 28.959 60.492 61.936 65.186 3.746 0.596 7.484 0.951 11.396 0.951 30.236 0 56.199-18.451 67.229-44.699 18.688-43.275 50.982-78.855 91.873-101.654-1.469 14.004-2.203 27.494-2.203 41.885 0 27.334 2.715 54.041 7.889 79.861 29.375 147.092 147.373 269.15 293.62 303.744 30.188 7.229 61.072 11.098 93.461 11.098 13.639 0 27.121-0.68 40.412-2.006 33.477-3.039 60.482-28.963 65.186-61.936 0.633-3.844 1.008-7.691 1.008-11.713 0-30.15-18.465-56.020-44.693-66.91-43.219-18.662-78.773-50.869-101.623-91.654 13.76 1.418 27.004 2.125 41.137 2.125 27.578 0 54.514-2.766 80.547-8.031 147.061-29.342 269.184-147.34 303.682-293.648zM731.932 492.206c76.592-11.75 144.213-51.348 191.621-108.34-20.785 124.699-119.51 219.166-233.182 241.87-19.766 4.066-40.082 6.123-61.043 6.123-34.486 0-67.631-5.785-98.518-16.436-4.865-1.662-10.096-2.623-15.521-2.623-26.525 0-48.061 21.533-48.061 48.059 0 2.41 0.178 4.779 0.521 7.094 11.779 76.6 51.41 144.223 108.436 191.621-125.342-21.273-219.242-119.768-241.934-233.244-4.064-19.756-6.119-40.062-6.119-61.014 0-34.473 5.783-67.607 16.432-98.484 1.67-4.877 2.639-10.119 2.639-15.559 0-26.506-21.52-48.025-48.025-48.025-2.416 0-4.791 0.18-7.111 0.523-76.592 11.75-144.213 51.348-191.621 108.342 20.746-124.467 119.299-219.124 233.184-241.87 19.723-4.018 39.979-6.045 60.883-6.045 34.527 0 67.723 5.756 98.676 16.357 4.869 1.664 10.104 2.627 15.535 2.627 26.518 0 48.049-21.529 48.049-48.049 0-2.416-0.178-4.789-0.523-7.109-11.779-76.6-51.41-144.221-108.436-191.619 125.342 21.273 219.242 119.766 241.934 233.244 4.064 19.754 6.119 40.061 6.119 61.012 0 34.475-5.783 67.607-16.432 98.484-1.672 4.879-2.641 10.121-2.641 15.564 0 26.504 21.52 48.021 48.023 48.021 2.418 0 4.793-0.18 7.115-0.525zM512 527.986c44.15 0 79.998-35.848 79.998-79.998 0-44.152-35.846-79.998-79.998-79.998s-79.998 35.846-79.998 79.998 35.846 79.998 79.998 79.998z" />
<glyph unicode="&#xe009;" glyph-name="garage" data-tags="garage" horiz-adv-x="1280" d="M1195.82 739.84c49.441-20.438 84.18-69.092 84.18-125.881v-645.959c0-17.662-14.338-32-32-32h-32c-17.662 0-32 14.338-32 32v645.6l0.027-0.008c0 16.92-10.332 31.447-25.027 37.607l-503.18 209.64c-4.834 2.008-10.189 3.117-15.748 3.117-5.557 0-10.857-1.109-15.691-3.117l-503.38-209.64c-14.68-6.041-25-20.469-25-37.316v-645.883c0-17.662-14.338-32-32-32h-32c-17.662 0-32 14.338-32 32v645.6c0 0.119-0.090 0.174-0.090 0.293 0 56.789 34.828 105.51 84.27 125.947l503.202 209.58c16.166 6.771 34.098 10.514 52.711 10.514s36.361-3.742 52.527-10.514zM1008 576c44.152 0 80-35.848 80-80v-528c0-17.662-14.338-32-32-32h-32c-17.662 0-32 14.338-32 32v288h-704v-288c0-17.662-14.338-32-32-32h-32c-17.662 0-32 14.338-32 32v528c0 44.152 35.848 80 80 80h736zM992 320v160h-704v-160h704zM736 128c17.662 0 32-14.338 32-32s-14.338-32-32-32h-192c-17.662 0-32 14.338-32 32s14.338 32 32 32h192z" />
<glyph unicode="&#xe00a;" glyph-name="garage-car" data-tags="garage-car" horiz-adv-x="1280" d="M1008 576c44.152 0 80-35.848 80-80v-528c0-17.662-14.338-32-32-32h-32c-17.662 0-32 14.338-32 32v512h-704v-512c0-17.662-14.338-32-32-32h-32c-17.662 0-32 14.338-32 32v528c0 44.152 35.848 80 80 80h736zM1195.82 739.82c49.441-20.432 84.18-69.062 84.18-125.848v-645.974c0-17.662-14.338-32-32-32h-32c-17.662 0-32 14.338-32 32v645.62c-0.002 16.924-10.305 31.434-25 37.602l-503.18 209.62c-4.834 2.008-10.189 3.117-15.748 3.117-5.557 0-10.857-1.109-15.691-3.117l-503.38-209.62c-14.682-6.049-25-20.48-25-37.332v-645.89c0-17.662-14.338-32-32-32h-32c-17.662 0-32 14.338-32 32v645.62c0 0.119-0.090 0.17-0.090 0.287 0 56.785 34.828 105.502 84.27 125.934l503.202 209.58c16.166 6.771 34.098 10.514 52.711 10.514s36.361-3.742 52.527-10.514zM860.38 219.24c39.062-11.977 67.521-48.297 67.619-91.24v-48c-0.086-20.723-13.436-38.326-32-44.76v-67.24c0-17.662-14.338-32-32-32h-64c-17.662 0-32 14.338-32 32v64h-256v-64c0-17.662-14.338-32-32-32h-64c-17.662 0-32 14.338-32 32v67.24c-18.564 6.434-31.914 24.037-32 44.76v48c0.129 42.062 27.447 77.752 65.301 90.42l23.398 93.58c14.904 60.197 69.314 104.939 134.090 104.939h128.131c0.063 0 0.109-0.061 0.172-0.061 64.727 0 119.115-44.613 134.068-104.738zM464 86.881c19.199 0 48-3.32 48 16.619s-28.801 49.84-48 49.84-32-13.301-32-33.24 12.801-33.219 32-33.219zM517.62 224h242.622l-16.24 64.84c-4.568 18.414-21.217 32.1-41.035 32.1h-128.045c-0.016 0-0.025-0.020-0.041-0.020-19.818 0-36.471-13.666-41.039-32.080zM816 86.881c19.199 0 32 13.119 32 33.119s-12.801 33.34-32 33.34-48-29.9-48-49.84 28.801-16.619 48-16.619z" />
<glyph unicode="&#xe00b;" glyph-name="garage-open" data-tags="garage-open" horiz-adv-x="1280" d="M1195.82 739.84c49.441-20.432 84.18-69.082 84.18-125.867v-645.974c0-17.662-14.338-32-32-32h-32c-17.662 0-32 14.338-32 32v645.62c-0.002 16.924-10.305 31.434-25 37.602l-503.18 209.62c-4.834 2.008-10.189 3.117-15.748 3.117-5.557 0-10.857-1.109-15.691-3.117l-503.38-209.62c-14.682-6.049-25-20.48-25-37.332v-645.89c0-17.662-14.338-32-32-32h-32c-17.662 0-32 14.338-32 32v645.62c0 0.119-0.090 0.17-0.090 0.287 0 56.785 34.828 105.502 84.27 125.934l503.202 209.58c16.166 6.771 34.098 10.514 52.711 10.514s36.361-3.742 52.527-10.514zM1008 576c44.152 0 80-35.848 80-80v-528c0-17.662-14.338-32-32-32h-32c-17.662 0-32 14.338-32 32v352h-704v-352c0-17.662-14.338-32-32-32h-32c-17.662 0-32 14.338-32 32v528c0 44.152 35.848 80 80 80h736zM992 480h-704v-96h704v96zM860.38 219.24c39.062-11.977 67.521-48.297 67.619-91.24v-48c-0.086-20.723-13.436-38.326-32-44.76v-67.24c0-17.662-14.338-32-32-32h-64c-17.662 0-32 14.338-32 32v64h-256v-64c0-17.662-14.338-32-32-32h-64c-17.662 0-32 14.338-32 32v67.24c-18.564 6.434-31.914 24.037-32 44.76v48c0.086 42.105 27.418 77.842 65.301 90.52l9.359 37.48h98.959l-8-32h242.622l-8 32h98.959zM464 86.881c19.199 0 48-3.32 48 16.619s-28.801 49.84-48 49.84-32-13.301-32-33.24 12.801-33.219 32-33.219zM816 86.881c19.199 0 32 13.119 32 33.119s-12.801 33.34-32 33.34-48-29.9-48-49.84 28.801-16.619 48-16.619z" />
<glyph unicode="&#xe00c;" glyph-name="heat" data-tags="heat" horiz-adv-x="896" d="M96 647.76c0.217-77.492 31.756-147.719 82.66-198.539 67.572-67.561 109.342-160.908 109.342-263.914 0-0.355 0-0.711-0.002-1.066v-152.24c0-17.662-14.338-32-32-32h-32c-17.662 0-32 14.338-32 32v152.24c-0.221 77.496-31.758 147.729-82.66 198.561-67.572 67.545-109.342 160.883-109.342 263.878 0 0.361 0 0.721 0.002 1.080v88.24c0 17.662 14.338 32 32 32h32c17.662 0 32-14.338 32-32v-88.24zM400 647.76c0.217-77.492 31.756-147.719 82.66-198.539 67.572-67.561 109.342-160.908 109.342-263.914 0-0.355 0-0.711-0.002-1.066v-152.24c0-17.662-14.338-32-32-32h-32c-17.662 0-32 14.338-32 32v152.24c-0.221 77.496-31.758 147.729-82.66 198.561-67.572 67.545-109.342 160.883-109.342 263.878 0 0.361 0 0.721 0.002 1.080v216.24c0 17.662 14.338 32 32 32h32c17.662 0 32-14.338 32-32v-216.24zM786.66 449.22c67.572-67.561 109.342-160.908 109.342-263.914 0-0.355 0-0.711-0.002-1.066v-152.24c0-17.662-14.338-32-32-32h-32c-17.662 0-32 14.338-32 32v152.24c-0.221 77.496-31.758 147.729-82.66 198.561-67.572 67.545-109.342 160.883-109.342 263.878 0 0.361 0 0.721 0.002 1.080v88.24c0 17.662 14.338 32 32 32h32c17.662 0 32-14.338 32-32v-88.24c0.217-77.492 31.756-147.719 82.66-198.539z" />
<glyph unicode="&#xe00d;" glyph-name="house" data-tags="house" horiz-adv-x="1152" d="M1141.26 480c6.619-5.865 10.773-14.436 10.773-23.965 0-8.127-3.035-15.549-8.033-21.195l-21.32-23.859c-5.863-6.605-14.426-10.75-23.943-10.75-8.146 0-15.586 3.051-21.236 8.070l-53.5 48v-440.3c0-44.152-35.848-80-80-80h-736.080c-44.152 0-80 35.848-80 80v440.26l-53.5-48c-5.65-5.020-13.1-8.090-21.244-8.090-9.52 0-18.072 4.166-23.936 10.77l-21.24 23.9c-4.998 5.646-8.053 13.078-8.053 21.205 0 9.529 4.174 18.090 10.793 23.955l512.14 459.84c14.127 12.545 32.795 20.168 53.156 20.168s38.955-7.623 53.082-20.168l106.881-96v4.16c0 26.492 21.508 48 48 48h192c26.492 0 48-21.508 48-48v-262.72zM928 32v510.5l-352 316-352-316v-510.5h704zM928 671.48v128.52h-96v-42.34zM448 544c0 17.662 14.338 32 32 32h192c17.662 0 32-14.338 32-32v-192c0-17.662-14.338-32-32-32h-192c-17.662 0-32 14.338-32 32v192z" />
<glyph unicode="&#xe00e;" glyph-name="house-day" data-tags="house-day" horiz-adv-x="1280" d="M704 352c0.055 17.637 14.363 31.945 32 32h128c17.637-0.055 31.945-14.363 32-32v-128c0-17.662-14.338-32-32-32h-128c-17.662 0-32 14.338-32 32v128zM1269.26 368c6.57-5.861 10.689-14.402 10.689-23.891 0-8.123-3.035-15.543-8.029-21.189l-21.24-24c-5.863-6.598-14.422-10.738-23.934-10.738-8.15 0-15.594 3.053-21.246 8.078l-53.5 48.52v-328.78c0-44.152-35.848-80-80-80h-544c-44.152 0-80 35.848-80 80v328.78l-53.58-48.6c-5.652-5.023-13.105-8.098-21.256-8.098-9.512 0-18.061 4.16-23.924 10.758l-21.24 24c-4.998 5.646-8.053 13.078-8.053 21.205 0 9.529 4.174 18.090 10.793 23.955l421.080 381.76c12.822 11.336 29.74 18.219 48.184 18.219s35.293-6.883 48.115-18.219l207.88-188.439v110.68c0 17.662 14.338 32 32 32h32c17.662 0 32-14.338 32-32v-197.699zM1056 32v399.88l-256 232.12-256-232.12v-399.88h512zM208 608c0-72.539 54.199-131.779 124-141.619l-78-70.842-126.461-42.199c-2.379-0.801-4.926-1.236-7.574-1.236-13.123 0-23.779 10.656-23.779 23.781 0 2.646 0.434 5.195 1.234 7.576l46 138.199-130.221 65.020c-7.834 3.896-13.225 11.959-13.225 21.297s5.391 17.426 13.225 21.324l130.16 65.279-46 138c-0.771 2.342-1.191 4.84-1.191 7.439 0 13.125 10.656 23.779 23.781 23.779 2.631 0 5.164-0.428 7.531-1.219l138.18-46 65.039 130.221c3.898 7.834 11.959 13.225 21.297 13.225s17.428-5.391 21.324-13.225l65.141-130.461 138 46c2.367 0.791 4.896 1.223 7.529 1.223 13.125 0 23.779-10.656 23.779-23.781 0-2.598-0.418-5.1-1.189-7.441l-46-138 14.779-7.379-80-72.561c-3.359 76.379-66.139 137.6-143.359 137.6-79.436-0.088-143.912-64.564-144-144zM272 608c0.076 44.117 35.883 79.924 80 80 44.152 0 80-35.848 80-80s-35.848-80-80-80-80 35.848-80 80z" />
<glyph unicode="&#xe00f;" glyph-name="house-leave" data-tags="house-leave" horiz-adv-x="1280" d="M726.5 182l-53.779-54h-464.72c-44.152 0-80 35.848-80 80v328.86l-53.539-48.619c-5.654-5.031-13.111-8.107-21.268-8.107-9.518 0-18.070 4.164-23.934 10.768l-21.26 24c-4.98 5.643-8.023 13.061-8.023 21.17 0 9.516 4.162 18.066 10.764 23.93l421.24 381.8c12.836 11.332 29.762 18.211 48.213 18.211 18.453 0 35.311-6.879 48.146-18.211l247.92-224.66-14.26-5.781c-26.73-10.861-51.080-26.207-72.18-45.219l-209.622 190-256.1-232.14v-400h520.82l-15.18-36.721c-0.703-1.988-1.814-3.783-3.24-5.279zM1056 768c-52.875 0.012-95.801 42.939-95.801 95.816v0.184c0 52.984 43.021 96 96.004 96s96-43.016 96-96-43.016-96-96-96h-0.203zM1278 396.96c1.178-3.746 1.957-7.73 2.039-11.842 0.012-0.402 0.020-0.746 0.020-1.152 0-1.379-0.066-2.742-0.199-4.086-0.521-4.268-1.65-8.436-3.26-12.262-0.439-1.020-0.619-2.139-1.119-3.139-2.467-4.859-5.623-9.246-9.4-13.1-0.939-0.961-2.080-1.701-3.1-2.602-3.055-2.74-6.385-5.115-10-7.119-1.561-0.84-3.16-1.561-4.781-2.24-3.551-1.449-7.391-2.518-11.299-3.1-1.537-0.316-3.113-0.559-4.701-0.721-4.031 0.008-7.928 0.563-11.639 1.58-2.039 0.244-4.064 0.646-6 1.18-6.357 2.432-12.080 6.107-16.881 10.76l-58.58 58c-12.377 12.352-21.904 27.5-27.639 44.42-28.641 85.58-28.842 91.4-43.641 110.801l-52.4-209.58 107.66-99.221c25.494-23.615 43.934-54.756 52-89.779l39.020-169.4c0.813-3.498 1.219-7.113 1.219-10.859 0-22.721-15.82-41.775-37.039-46.74-2.893-0.553-5.793-0.844-8.846-0.844-2.578 0-5.107 0.207-7.574 0.604-2.408 0.242-4.795 0.678-7.080 1.281-3.502 1.023-6.891 2.469-10 4.238-1.945 0.975-3.816 2.078-5.6 3.301-3.029 2.387-5.713 5.070-8.1 8.1-1.262 1.309-2.428 2.66-3.541 4.1-3.064 4.553-5.383 9.734-6.719 15.221l-39.020 169.6c-3.607 15.926-11.98 30.082-23.58 40.781l-158 146c-29.201 31.639-39.201 71.42-29.82 109.219l39.639 158.4c-22.459-7.221-45.279-16.799-88.658-34.221-19.904-7.979-36.1-22.947-45.641-42l-28-60.76c-2.754-5.865-6.553-11.074-11.221-15.459-4.639-4.363-10.156-7.787-16.26-10-0.52-0.18-1-0.52-1.52-0.68-3.822-1.023-7.779-1.574-11.92-1.574-1.279 0-2.547 0.051-3.801 0.154-1.24 0.080-2.459 0.26-3.699 0.439-4.875 0.637-9.635 1.967-14 3.84-0.48 0.199-0.98 0.301-1.439 0.52-4.756 2.336-9.084 5.326-12.92 8.9-0.922 0.859-1.781 1.779-2.641 2.68-3.51 3.611-6.414 7.752-8.621 12.34-0.119 0.281-0.34 0.5-0.459 0.781-1.99 4.893-3.127 10.268-3.18 15.859-0.041 1.359 0.119 2.76 0.119 4.18 0.303 6.525 1.887 12.801 4.461 18.439l28.82 62.201c19.977 40.619 54.254 72.58 96.479 89.6 85.461 34.42 121.801 52 191.461 52 0.072 0 0.086 0.033 0.156 0.033 92.896 0 171.797-60.398 199.543-144.033l25.76-77.6c0.861-2.424 2.234-4.602 4-6.4l58.561-57.801c4.641-4.604 8.371-10.063 10.98-16.16 0.627-1.635 1.17-3.357 1.6-5.078zM352.2 576h128c17.637-0.055 31.945-14.363 32-32v-128c0-17.662-14.338-32-32-32h-128c-17.66 0-32 14.338-32 32v128c0.055 17.637 14.365 31.945 32 32zM854.86 284l1.861-1.801 59.779-55.119-38.881-99.859c-8.887-22.307-22.129-42.291-38.818-59l-116.801-117c-8.674-8.666-20.66-14.016-33.877-14.016-26.447 0-47.92 21.473-47.92 47.922 0 13.23 5.373 25.217 14.057 33.893l116.859 116.98c7.707 7.563 13.795 16.684 17.82 26.9l55.42 134.6c3.061-3.82 5.381-7.98 8.76-11.641z" />
<glyph unicode="&#xe010;" glyph-name="house-night" data-tags="house-night" horiz-adv-x="1280" d="M224 512c-123.629 0-224 100.371-224 224s100.371 224 224 224c13.979-0.219 27.525-1.486 40.92-3.74 4.875-0.916 8.59-5.193 8.59-10.332 0-3.902-2.131-7.313-5.289-9.127-53.113-30.182-88.928-87.166-88.928-152.568 0-96.85 78.631-175.48 175.48-175.48 11.322 0 22.398 1.074 33.127 3.129 0.635 0.119 1.277 0.176 1.949 0.176 5.795 0 10.5-4.705 10.5-10.5 0-2.508-0.881-4.811-2.35-6.617-40.994-50.67-103.592-82.939-173.783-82.939h-0.217zM390 822.44c-3.504 1.748-5.914 5.355-5.914 9.535 0 4.178 2.41 7.799 5.914 9.545l79.34 33.121 33.121 79.359c1.736 3.518 5.348 5.939 9.533 5.939s7.809-2.422 9.545-5.939l33.121-79.359 79.539-33.121c3.506-1.746 5.914-5.355 5.914-9.533 0-4.18-2.408-7.799-5.914-9.547l-79.439-33.119-33.119-79.439c-1.738-3.518-5.35-5.939-9.535-5.939s-7.809 2.422-9.545 5.939l-33.121 79.439zM314.2 201.52c3.506-1.746 5.914-5.355 5.914-9.533 0-4.18-2.408-7.799-5.914-9.547l-79.439-33.119-33.119-79.439c-1.738-3.518-5.35-5.939-9.535-5.939-4.184 0-7.809 2.422-9.545 5.939l-33.121 79.439-79.439 33.119c-3.504 1.748-5.914 5.355-5.914 9.535 0 4.178 2.41 7.799 5.914 9.545l79.34 33.121 33.121 79.359c1.736 3.518 5.348 5.939 9.533 5.939s7.809-2.422 9.545-5.939l33.221-79.359zM1269.26 368c6.57-5.861 10.689-14.402 10.689-23.891 0-8.123-3.035-15.543-8.029-21.189l-21.24-24c-5.863-6.598-14.422-10.738-23.934-10.738-8.15 0-15.594 3.053-21.246 8.078l-53.5 48.52v-328.78c0-44.152-35.848-80-80-80h-544c-44.152 0-80 35.848-80 80v328.78l-53.58-48.6c-5.652-5.023-13.105-8.098-21.256-8.098-9.512 0-18.061 4.16-23.924 10.758l-21.24 24c-4.998 5.646-8.053 13.078-8.053 21.205 0 9.529 4.174 18.090 10.793 23.955l421.080 381.76c12.822 11.336 29.74 18.219 48.184 18.219s35.293-6.883 48.115-18.219l207.88-188.439v110.68c0 17.662 14.338 32 32 32h32c17.662 0 32-14.338 32-32v-197.699zM1056 32v399.88l-256 232.12-256-232.12v-399.88h512zM704 352c0.055 17.637 14.363 31.945 32 32h128c17.637-0.055 31.945-14.363 32-32v-128c0-17.662-14.338-32-32-32h-128c-17.662 0-32 14.338-32 32v128z" />
<glyph unicode="&#xe011;" glyph-name="house-return" data-tags="house-return" horiz-adv-x="1280" d="M352.16 576h128c17.635-0.055 31.945-14.363 32-32v-128c0-17.662-14.34-32-32-32h-128c-17.637 0.055-31.945 14.363-32 32v128c0.066 17.631 14.369 31.934 32 32zM224.16 623.82l-0.16-399.82h475.34c-6.963-14.402-12.639-29.932-16.619-45.76l-11.561-50.24h-463.16c-44.152 0-80 35.848-80 80v328.8l-53.561-48.521c-5.654-5.029-13.109-8.107-21.266-8.107-9.518 0-18.070 4.164-23.934 10.768l-21.24 23.9c-4.998 5.646-8.053 13.078-8.053 21.205 0 9.529 4.174 18.090 10.793 23.955l421.22 381.76c12.828 11.338 29.752 18.223 48.203 18.223s35.307-6.885 48.137-18.223l250.92-228.78c-25.418-18.992-47.029-41.889-64.541-68.42l-234.52 211.44zM864.14 768c-52.881 0.045-95.801 42.986-95.801 95.877v0.123c0 52.984 43.020 96 96.004 96s96-43.016 96-96-43.016-96-96-96h-0.203zM1049.82 438.42c9.379-37.801-0.621-77.58-29.82-109.199l-158-146c-11.609-10.695-19.99-24.852-23.6-40.781l-39.020-169.6c-1.346-5.482-3.662-10.664-6.721-15.221-1.113-1.445-2.287-2.797-3.561-4.1-2.354-3.025-5.004-5.709-8-8.1-1.781-1.223-3.652-2.326-5.6-3.301-3.109-1.77-6.498-3.215-10-4.238-2.285-0.604-4.67-1.039-7.080-1.281-2.467-0.396-4.912-0.602-7.49-0.602-3.053 0-6.037 0.289-8.93 0.842-21.303 4.902-37.234 23.969-37.234 46.75 0 3.73 0.428 7.363 1.234 10.85l39.119 169.4c8.072 35.020 26.512 66.16 52 89.779l107.66 99.221-52.379 209.58c-14.82-19.4-15-25.221-43.641-110.801-5.734-16.92-15.264-32.068-27.641-44.42l-58.58-58c-4.801-4.652-10.521-8.328-16.879-10.76-1.936-0.533-3.961-0.936-6-1.18-3.711-1.021-7.607-1.576-11.641-1.58-1.586 0.162-3.164 0.404-4.699 0.721-3.902 0.582-7.734 1.65-11.281 3.1-1.631 0.66-3.24 1.416-4.779 2.24-3.617 2-6.947 4.377-10 7.119-1 0.9-2.16 1.641-3.1 2.602-3.777 3.854-6.934 8.24-9.4 13.1-0.5 1-0.68 2.119-1.1 3.139-1.615 3.824-2.752 7.992-3.279 12.262-0.119 1.334-0.17 2.637-0.17 4 0 4.518 0.66 8.881 1.889 13 0.428 1.725 0.979 3.447 1.621 5.078 2.594 6.102 6.32 11.561 10.959 16.16l58.66 57.801c1.766 1.799 3.139 3.977 4 6.4l25.76 77.6c27.74 83.635 106.578 144 199.471 144h0.209c69.641 0 106.041-17.6 191.441-52 42.264-16.967 76.59-48.906 96.6-89.52l28.82-62.221c2.572-5.641 4.16-11.918 4.479-18.439v-4.18c-0.047-5.592-1.176-10.965-3.158-15.861-0.121-0.279-0.342-0.5-0.461-0.779-2.207-4.588-5.109-8.73-8.619-12.34-0.861-0.9-1.721-1.82-2.66-2.68-3.826-3.578-8.148-6.568-12.9-8.9-0.461-0.221-0.98-0.32-1.439-0.52-4.367-1.873-9.127-3.201-14-3.84-1.221-0.182-2.441-0.441-3.682-0.441-1.252-0.102-2.461-0.146-3.74-0.146-4.143 0-8.158 0.545-11.979 1.566-0.52 0.16-1 0.5-1.52 0.682-6.105 2.213-11.623 5.635-16.262 10-4.666 4.385-8.465 9.594-11.219 15.459l-28 60.76c-9.545 19.049-25.74 34.018-45.641 42-43.4 17.42-66.221 27-88.66 34.221zM1265.82 19.039c8.342-8.621 13.523-20.396 13.523-33.328 0-26.436-21.463-47.9-47.9-47.9-12.885 0-24.59 5.1-33.203 13.389l-116.779 117c-16.703 16.705-29.953 36.689-38.842 59l-38.859 99.861 61.56 56.859 1.719 1.859c3.381 3.641 5.721 7.82 8.762 11.641l55.42-134.6c4.035-10.188 10.121-19.281 17.818-26.82z" />
<glyph unicode="&#xe012;" glyph-name="house-signal" data-tags="house-signal" horiz-adv-x="1280" d="M0 512c318.12 0 576-257.88 576-576h-96c0 265.1-214.9 480-480 480v96zM0 128c105.967 0 192-86.033 192-192h-96c0 52.984-43.016 96-96 96v96zM0 320c212 0 384-172 384-384h-96c0 158.951-129.049 288-288 288v96zM1269.26 560c6.564-5.861 10.68-14.398 10.68-23.881 0-8.119-3.031-15.535-8.020-21.18l-21.24-24c-5.863-6.598-14.422-10.738-23.934-10.738-8.15 0-15.594 3.055-21.246 8.078l-53.5 48.541v-328.82c0-44.152-35.848-80-80-80h-429.040c-9.563 32.895-21.848 65.418-36.141 96h449.18v399.9l-256 232.24-256-232.24v-295.6c-28.346 39.148-60.127 74.455-96 106.699v101.82l-53.58-48.621c-5.652-5.023-13.105-8.098-21.256-8.098-9.512 0-18.061 4.16-23.924 10.758l-21.24 24c-4.992 5.645-8.043 13.072-8.043 21.193 0 9.525 4.17 18.084 10.783 23.947l421.080 381.8c12.824 11.33 29.74 18.211 48.184 18.211s35.291-6.881 48.115-18.211l207.88-188.48v110.68c0 17.662 14.338 32 32 32h32c17.662 0 32-14.338 32-32v-197.68zM864 384h-128c-17.637 0.055-31.945 14.363-32 32v128c0 17.662 14.338 32 32 32h128c17.662 0 32-14.338 32-32v-128c-0.055-17.637-14.363-31.945-32-32z" />
<glyph unicode="&#xe014;" glyph-name="lamp-desk" data-tags="lamp-desk" d="M785.3 403.2l155.5 155.521c12.084-17.879 19.098-39.473 19.098-62.658 0-61.814-50.186-112-112-112-23.178 0-44.723 7.057-62.598 19.137zM1018.6 788.48c3.461-8.299 5.416-17.455 5.416-27.002 0-19.455-7.941-37.070-20.756-49.779l-370.98-371.020c-12.754-12.752-30.377-20.633-49.818-20.633-38.881 0-70.447 31.557-70.461 70.434v170l-45.74 45.779-172.26-172.26 114.76-402h263.24c42.641 0 82.439-27.779 94.961-66.24 4.818-14.82-7.762-29.76-23.342-29.76h-719.238c-15.561 0-28.16 14.939-23.342 29.76 12.521 38.461 52.342 66.24 94.961 66.24h212.96l-115.141 402.88c-1.201 4.197-1.859 8.629-1.859 13.211 0 13.232 5.367 25.223 14.039 33.908l199.52 199.4c-13.662 26.334-21.479 56.465-21.479 88.156 0 105.615 85.744 191.361 191.359 191.361 53.355 0 101.641-21.885 136.359-57.158l71.76-71.76h170c0.061 0 0.086 0.045 0.145 0.045 29.311 0 54.449-18.014 64.936-43.564zM608 452.16l283.76 283.84h-148l-99.879 99.801c-17.291 16.789-40.902 27.105-66.885 27.105-52.984 0-96-43.016-96-96 0-25.986 10.348-49.574 27.145-66.867l99.859-99.879v-148z" />
<glyph unicode="&#xe015;" glyph-name="lamp-floor" data-tags="lamp-floor" horiz-adv-x="768" d="M764 534.48c15.42-41.84-15.141-86.48-59.279-86.48h-273.3v-416h110.58c42.18 0 81.5-27.779 93.881-66.24 4.76-14.82-7.682-29.76-23.080-29.76h-457.622c-15.379 0-27.82 14.939-23 29.76 12.381 38.461 51.701 66.24 93.82 66.24h110.58v416h-273.3c-44.139 0-74.699 44.641-59.279 86.48l142.34 384c8.85 24.164 32.008 41.424 59.199 41.52h356.922c27.23-0.055 50.426-17.328 59.279-41.52zM108.9 544h550.2l-118.561 320h-313.078z" />
<glyph unicode="&#xe016;" glyph-name="light-ceiling" data-tags="light-ceiling" d="M512-64c-70.645 0-128 57.355-128 128h256c0-70.645-57.355-128-128-128zM560 637.8c238.44-21.801 430-204.182 463.36-437.042 5.521-38.379-25.359-72.76-64.479-72.76h-893.762c-39.119 0-69.979 34.381-64.479 72.76 33.359 232.86 224.92 415.24 463.36 437.042v322.2h96v-322.2zM102.699 224h818.602c-44.262 184.84-214 320-409.3 320s-365.040-135.16-409.3-320z" />
<glyph unicode="&#xe017;" glyph-name="light-switch" data-tags="light-switch" horiz-adv-x="768" d="M640 960c70.645 0 128-57.355 128-128v-768c0-70.645-57.355-128-128-128h-512c-70.645 0-128 57.355-128 128v768c0 70.645 57.355 128 128 128h512zM672 64v768c0 17.662-14.338 32-32 32h-211.26c-6.371-18.611-23.998-32.006-44.758-32.006-20.758 0-38.412 13.395-44.783 32.006h-211.2c-17.662 0-32-14.338-32-32v-768c0-17.662 14.338-32 32-32h211.2c6.371 18.611 24 32.006 44.758 32.006s38.412-13.395 44.783-32.006h211.26c17.662 0 32 14.338 32 32zM512 768c35.322 0 64-28.678 64-64v-512c0-35.322-28.678-64-64-64h-256c-35.322 0-64 28.678-64 64v512c0 35.322 28.678 64 64 64h256zM480 224v176h-192v-176h192zM480 496v176h-192v-176h192z" />
<glyph unicode="&#xe018;" glyph-name="light-switch-off" data-tags="light-switch-off" horiz-adv-x="768" d="M640 960c70.645 0 128-57.355 128-128v-768c0-70.645-57.355-128-128-128h-512c-70.645 0-128 57.355-128 128v768c0 70.645 57.355 128 128 128h512zM672 64v768c0 17.662-14.338 32-32 32h-211.24c-6.359-18.617-23.988-32.020-44.746-32.020-20.76 0-38.414 13.402-44.773 32.020h-211.24c-17.662 0-32-14.338-32-32v-768c0-17.662 14.338-32 32-32h211.24c6.359 18.617 23.988 32.020 44.746 32.020 20.76 0 38.414-13.402 44.773-32.020h211.24c17.662 0 32 14.338 32 32zM512 768c35.322 0 64-28.678 64-64v-512c0-35.322-28.678-64-64-64h-256c-35.322 0-64 28.678-64 64v512c0 35.322 28.678 64 64 64h256zM480 448v224h-192v-224h192z" />
<glyph unicode="&#xe019;" glyph-name="light-switch-on" data-tags="light-switch-on" horiz-adv-x="768" d="M640 960c70.645 0 128-57.355 128-128v-768c0-70.645-57.355-128-128-128h-512c-70.645 0-128 57.355-128 128v768c0 70.645 57.355 128 128 128h512zM672 64v768c0 17.662-14.338 32-32 32h-211.2c-6.371-18.611-24-32.006-44.758-32.006s-38.412 13.395-44.783 32.006h-211.26c-17.662 0-32-14.338-32-32v-768c0-17.662 14.338-32 32-32h211.26c6.371 18.611 23.998 32.006 44.758 32.006 20.758 0 38.412-13.395 44.783-32.006h211.2c17.662 0 32 14.338 32 32zM512 768c35.322 0 64-28.678 64-64v-512c0-35.322-28.678-64-64-64h-256c-35.322 0-64 28.678-64 64v512c0 35.322 28.678 64 64 64h256zM480 224v192h-192v-192h192z" />
<glyph unicode="&#xe01b;" glyph-name="microwave" data-tags="microwave" d="M928 832c52.984 0 96-43.016 96-96v-576c0-52.984-43.016-96-96-96v0l-48-64h-96l-48 64h-448l-48-64h-96l-48 64c-52.984 0-96 43.016-96 96v576c0 52.984 43.016 96 96 96h832zM928 160v576h-832v-576h832zM832 416c-26.492 0-48 21.508-48 48s21.508 48 48 48 48-21.508 48-48-21.508-48-48-48zM832 576c-26.492 0-48 21.508-48 48s21.508 48 48 48 48-21.508 48-48-21.508-48-48-48zM192 224c-17.662 0-32 14.338-32 32v384c0 17.662 14.338 32 32 32h512c17.662 0 32-14.338 32-32v-384c0-17.662-14.338-32-32-32h-512z" />
<glyph unicode="&#xe01c;" glyph-name="outlet" data-tags="outlet" d="M896 960c70.645 0 128-57.355 128-128v-768c0-70.645-57.355-128-128-128h-768c-70.645 0-128 57.355-128 128v768c0 70.645 57.355 128 128 128h768zM928 64v768c0 17.662-14.338 32-32 32h-768c-17.662 0-32-14.338-32-32v-768c0-17.662 14.338-32 32-32h768c17.662 0 32 14.338 32 32zM707.7 768c0.164 0.002 0.324 0.010 0.486 0.010 12.623 0 24.059-5.127 32.334-13.41 76.061-78.020 123.48-186.4 123.48-306.6s-47.48-228.58-123.48-306.58c-8.281-8.295-19.725-13.422-32.359-13.422-0.154 0-0.307 0-0.461 0.002h-391.398c-0.154-0.002-0.305-0.008-0.459-0.008-12.635 0-24.080 5.133-32.361 13.428-76.061 78.020-123.48 186.381-123.48 306.58s47.42 228.58 123.48 306.6c8.275 8.283 19.709 13.402 32.33 13.402 0.164 0 0.326 0 0.49-0.002h391.398zM416 416v160c0 17.662-14.338 32-32 32h-32c-17.662 0-32-14.338-32-32v-160c0-17.662 14.338-32 32-32h32c17.662 0 32 14.338 32 32zM576 256v32c0 35.322-28.678 64-64 64s-64-28.678-64-64v-32h128zM704 416v160c0 17.662-14.338 32-32 32h-32c-17.662 0-32-14.338-32-32v-160c0-17.662 14.338-32 32-32h32c17.662 0 32 14.338 32 32z" />
<glyph unicode="&#xe01d;" glyph-name="oven" data-tags="oven" horiz-adv-x="896" d="M192 96c-17.662 0-32 14.338-32 32v320c0 17.662 14.338 32 32 32h512c17.662 0 32-14.338 32-32v-320c0-17.662-14.338-32-32-32h-512zM256 384v-64h384v64h-384zM208 800c26.492 0 48-21.508 48-48s-21.508-48-48-48-48 21.508-48 48 21.508 48 48 48zM688 800c26.492 0 48-21.508 48-48s-21.508-48-48-48-48 21.508-48 48 21.508 48 48 48zM368 800c26.492 0 48-21.508 48-48s-21.508-48-48-48-48 21.508-48 48 21.508 48 48 48zM768 960c70.645 0 128-57.355 128-128v-832c0-35.322-28.678-64-64-64h-768c-35.322 0-64 28.678-64 64v832c0 70.645 57.355 128 128 128h640zM800 32v512h-704v-512h704zM800 640v192c0 17.662-14.338 32-32 32h-640c-17.662 0-32-14.338-32-32v-192h704zM528 800c26.492 0 48-21.508 48-48s-21.508-48-48-48-48 21.508-48 48 21.508 48 48 48z" />
<glyph unicode="&#xe01f;" glyph-name="planet-moon" data-tags="planet-moon" horiz-adv-x="1152" d="M1024 960c70.645 0 128-57.355 128-128s-57.355-128-128-128-128 57.355-128 128 57.355 128 128 128zM448 832c247.426 0 448-200.57 448-448 0-247.426-200.574-448-448-448s-448 200.574-448 448c0 247.43 200.574 448 448 448zM448 32c194.094 0 352 157.906 352 352 0 172.859-125.352 316.7-289.864 346.168-2.086-20.754-7.996-40.957-19.637-58.418l-99.457-114.715c-9.734-11.229-15.652-25.92-15.652-41.934 0-17.66 7.17-33.662 18.754-45.246 13.508-13.506 32.172-21.854 52.762-21.855h129.094c35.322 0 64-28.678 64-64v-33.781c0-20.525-4.916-40.053-13.516-57.254l-80.648-161.297c-8.049-16.088-23.457-27.822-41.785-30.906-6.885-1.162-13.832-2.117-20.84-2.867-1.045-0.104-2.074-0.156-3.146-0.156-17.699 0-32.068 14.369-32.068 32.068v0.057c-0.004 46.957-0.008 126.137 0.004 126.137-35.322 0-64 28.678-64 64v64l-109.254 109.258c-11.586 11.582-27.594 18.742-45.254 18.742l-50.051 0.004c-0.053 0-0.066-0.059-0.119-0.059-19.891 0-37.393 10.307-47.451 25.867-22.789-46.322-35.812-98.754-35.871-153.812 0-194.094 157.906-352 352-352z" />
<glyph unicode="&#xe020;" glyph-name="planet-ringed" data-tags="planet-ringed" d="M1005.864 941.922c46.982-46.984-0.027-176.625-109.631-334.434 20.357-48.955 31.783-102.91 31.783-159.197 0-0.088 0-0.174-0.002-0.262 0-229.78-186.268-416.046-416.042-416.046-0.088 0-0.445 0.184-0.531 0.184-56.291 0-109.975 11.242-158.932 31.6-157.805-109.604-287.446-156.611-334.428-109.627-46.941 46.936 0.266 176.498 109.732 334.138-20.424 49.020-31.889 103.061-31.889 159.443v0.309c0 229.776 186.268 416.046 416.046 416.046 0.1 0 0.471-0.184 0.57-0.184 56.385 0 110.156-11.281 159.176-31.709 157.643 109.469 287.204 156.674 334.144 109.738zM127.928 63.984c15.953-15.951 65.746 4.73 134.867 51.436-31.775 23.838-59.496 51.549-83.346 83.314-46.6-68.98-67.449-118.824-51.521-134.75zM345.15 176.205c69.441 54.977 149.223 126.215 230.824 207.816s152.842 161.385 207.816 230.826c-56.381 91.525-156.66 153.217-271.818 153.217-176.471 0-320.040-143.568-320.040-320.036 0-115.158 61.695-215.442 153.217-271.824zM511.972 127.992c176.467 0 320.034 143.566 320.034 320.038 0 0.027-0.006-0.184-0.006-0.158 0 22.184-2.26 43.844-6.564 64.76-56.24-70.232-115.109-135.854-178.77-199.297-63.445-63.658-129.066-122.529-199.299-178.771 20.918-4.305 42.342-6.57 64.527-6.57h0.078zM761.268 780.548c31.762-23.85 59.471-51.568 83.309-83.342 46.709 69.127 67.387 118.914 51.438 134.863-15.928 15.928-65.766-4.926-134.746-51.521z" />
<glyph unicode="&#xe021;" glyph-name="police-box" data-tags="police-box" horiz-adv-x="768" d="M368 544c0-8.83-7.17-16-16-16h-56v72h72v-56zM280 688v-72h-72v56c0 8.83 7.17 16 16 16h56zM224 528c-8.83 0-16 7.17-16 16v56h72v-72h-56zM368 672v-56h-72v72h56c8.83 0 16-7.17 16-16zM224 320c-8.83 0-16 7.17-16 16v128c0 8.83 7.17 16 16 16h128c8.83 0 16-7.17 16-16v-128c0-8.83-7.17-16-16-16h-128zM560 544c0-8.83-7.17-16-16-16h-56v72h72v-56zM560 672v-56h-72v72h56c8.83 0 16-7.17 16-16zM416 528c-8.83 0-16 7.17-16 16v56h72v-72h-56zM472 688v-72h-72v56c0 8.83 7.17 16 16 16h56zM736 32c17.66 0 32-14.34 32-32v-32c0-17.66-14.34-32-32-32h-704c-17.66 0-32 14.34-32 32v32c0 17.66 14.34 32 32 32h32v752c0 26.492 21.508 48 48 48h16v32c0 17.66 14.34 32 32 32h176v32c0 17.66 14.34 32 32 32h32c17.66 0 32-14.34 32-32v-32h175.957c17.66 0 32-14.34 32-32v-32h16.043c26.49 0 48-21.51 48-48v-752h32zM608 32v704h-448v-704h448z" />
<glyph unicode="&#xe022;" glyph-name="portal-enter" data-tags="portal-enter" d="M832 960c158.691 0 192-278.418 192-511.984 0-423.158-104.41-511.984-192-511.984-130.254 0-175.973 187.6-188.195 383.988h96.875c12.465-167.072 48.613-287.992 91.32-287.992 53.020 0 96 186.246 96 415.988s-42.98 415.986-96 415.986c-50.602 0-91.961-169.752-95.637-384.944l47.762-0.17c26.562-0.092 48-20.529 47.875-47.061-0.088-26.4-21.549-47.811-47.971-47.811h-0.217l-96.812 0.313c-49.438 0.188-92.375 30.936-106.812 78.279l-27.938 91.871c-2.848 8.811-7.23 16.99-12.813 24.125l-83.875-209.588 103.688-62.592c32.48-19.668 54.068-55.25 54.068-95.959 0-10.641-1.482-20.938-4.256-30.693l-66.625-208.932c-5.719-20.092-24.211-34.834-46.125-34.842-4.59 0.020-9.029 0.664-13.25 1.844-20.074 5.725-34.791 24.201-34.791 46.102 0 4.592 0.646 9.035 1.854 13.24l66.562 208.932c0.387 1.406 0.605 2.883 0.625 4.406-0.295 5.684-3.264 10.664-7.688 13.686l-167.562 101.186c-32.557 19.488-54.203 55.104-54.203 95.773 0 14.867 2.914 29.059 8.203 42.035l70.625 174.682-29.75 6.75c-5.654 1.256-11.543 1.887-17.572 1.887-18.447 0-35.455-6.203-49.053-16.637l-96.75-74.748c-8.117-6.279-18.373-10.061-29.422-10.061-26.502 0-48.018 21.516-48.018 48.016 0 15.463 7.324 29.227 18.689 38.012l96.75 74.717c29.631 23.051 66.895 36.852 107.309 36.852 13.473 0 26.59-1.525 39.191-4.416l156.5-35.404c61.742-14.021 111.293-60.471 129.625-120.465l0.004-0.012c20.055 307.888 110.434 377.624 187.809 377.624zM544.312 768.006c-52.994 0-96.029 43.010-96.062 95.996 0 52.982 43.014 95.998 95.996 95.998s95.996-43.016 95.996-95.996c0-52.961-42.979-95.963-95.93-95.998zM252.312 326.3c14.402-22.723 33.594-41.611 56.562-55.654l19.125-11.531-27.062-63.217c-17.121-39.943-56.756-67.873-102.936-67.873h-150.002c-26.49 0-47.998 21.508-47.998 47.998 0 26.492 21.508 47.998 47.998 47.998h149.938c6.592 0.020 12.244 4.014 14.688 9.719z" />
<glyph unicode="&#xe023;" glyph-name="portal-exit" data-tags="portal-exit" d="M736.312 768.006c-52.996 0-96.031 43.010-96.062 95.998 0 52.982 43.014 95.996 95.996 95.996s95.996-43.016 95.996-95.996c0-52.961-42.979-95.963-95.93-95.998zM976.124 480.016c26.426-0.076 47.861-21.555 47.861-48 0-26.486-21.502-47.99-47.986-47.998h-0.188l-96.812 0.313c-50.387 0.004-92.994 33.494-106.812 79.404l-27.938 90.746c-2.848 8.811-7.232 16.99-12.813 24.125l-83.875-209.588 103.688-62.592c32.479-19.668 54.068-55.25 54.068-95.959 0-10.641-1.484-20.938-4.256-30.693l-66.625-208.93c-5.719-20.094-24.211-34.836-46.125-34.844-4.592 0.020-9.029 0.664-13.25 1.844-20.076 5.725-34.793 24.201-34.793 46.102 0 4.592 0.648 9.035 1.855 13.24l66.562 208.932c0.387 1.406 0.605 2.883 0.625 4.406-0.295 5.686-3.264 10.666-7.688 13.688l-167.562 101.184c-32.557 19.488-54.203 55.104-54.203 95.775 0 14.867 2.914 29.059 8.203 42.033l70.625 174.682-29.75 6.75c-5.654 1.258-11.543 1.887-17.574 1.887-18.445 0-35.455-6.203-49.051-16.637l-81.629-63.064c2.27-39.854 3.316-79.943 3.316-118.805 0-88.994-4.863-162.322-12.98-223.992h18.918c6.59 0.018 12.244 4.012 14.688 9.717l39.688 92.561c14.402-22.721 33.594-41.611 56.562-55.654l19.125-11.531-27.062-63.217c-17.121-39.943-56.756-67.873-102.936-67.873h-150.047c-26.49 0-47.998 21.508-47.998 48 0 26.49 21.508 47.998 47.998 47.998h32.494c9.66 64.812 15.551 141.1 15.551 223.992 0 229.742-42.98 415.988-96 415.988s-96-186.246-96-415.988 42.98-415.988 96-415.988c13.090 0 25.559 11.441 36.93 32h105.262c-38.336-99.891-92.926-127.996-142.191-127.996-158.688 0-192 278.422-192 511.984 0 423.162 104.41 511.984 192 511.984 106.848 0 156.719-126.344 177.992-280.106l33.57 25.926c29.633 23.053 66.896 36.852 107.311 36.852 13.471 0 26.588-1.525 39.189-4.414l156.5-35.406c61.742-14.021 111.293-60.471 129.625-120.465l27.938-90.717c1.945-6.537 8-11.311 15.166-11.311h0.021z" />
<glyph unicode="&#xe024;" glyph-name="radar" data-tags="radar" d="M1008 448c0-273.934-222.066-496-496-496s-496 222.066-496 496 222.066 496 496 496h0.422c102.84 0 198.838-31.857 277.872-85.832l60.461 60.461c5.793 5.793 13.793 9.377 22.623 9.377s16.838-3.584 22.631-9.377l22.621-22.621c5.793-5.793 9.377-13.793 9.377-22.623s-3.584-16.838-9.377-22.631l-402.758-402.754h124.129v-0.369c0-70.645-57.355-128-128-128s-128 57.355-128 128c0 69.182 55.070 125.625 123.691 127.936l69.086 69.086c-20.271 7.137-42.123 11.16-64.777 11.348-114.799 0-208-93.201-208-208s93.201-208 208-208 208 93.201 208 208h96c0-147.895-105.703-270.856-245.622-298.114-14.346 16.043-35.197 26.146-58.391 26.146s-44.021-10.104-58.367-26.146c-120.66 23.668-216.066 119.074-239.734 239.734 16.043 14.346 26.146 35.197 26.146 58.391s-10.104 44.021-26.146 58.367c27.258 139.918 150.219 245.622 298.114 245.622 49.836 0 95.984-13.355 137.32-34.805l71.281 71.281c-60.49 37.541-132.244 59.486-208.602 59.523-197.898 0-362.254-144.613-394.024-333.622-22.32-14.195-37.977-37.969-37.977-66.379s15.656-52.184 37.977-66.379c28.375-166.979 160.666-299.27 327.644-327.644 14.195-22.32 37.969-37.977 66.379-37.977s52.184 15.656 66.379 37.977c189.008 31.77 333.622 196.125 333.622 394.024h96z" />
<glyph unicode="&#xe025;" glyph-name="raygun" data-tags="raygun" horiz-adv-x="1152" d="M223.902 656.036c26.488 0 48.002-21.506 48.004-47.992 0-26.49-21.506-47.996-47.994-47.996s-47.994 21.504-47.994 47.994c0 26.484 21.5 47.988 47.984 47.994zM415.922 656.036c26.488 0 48.002-21.506 48.004-47.992 0-26.49-21.506-47.996-47.994-47.996s-47.994 21.504-47.994 47.994c0 26.484 21.5 47.988 47.984 47.994zM640.066 896.006c17.658 0 32.004-14.336 32.004-31.996v-511.936c0-17.66-14.338-31.996-31.996-31.996h-32.012c-17.66 0-31.998 14.336-32 31.996v55.375c-4.723-2.277-8.949-5.367-13.852-7.309l-240.176-416.024c-16.541-28.803-47.652-48.057-83.223-48.057-17.477 0-33.865 4.688-47.98 12.873l-110.824 63.992c-28.795 16.549-48.039 47.66-48.039 83.227 0 17.461 4.678 33.838 12.848 47.945l140.84 243.836c-105.359 18.266-185.656 109.551-185.656 220.11 0 89.156 52.496 165.494 127.922 201.542l0.090 118.379c0.002 17.66 14.369 31.979 32.029 31.979 5.129 0 9.98-1.211 14.279-3.361l209.598-124.566h96.012c34.385-0.164 67.152-8.326 96.133-22.523v54.52c0.002 17.66 14.34 31.996 32 31.996h32.004zM238.852 32.055l203.226 352.016h-147.785l-166.332-287.977zM576.062 524.434v167.219c-23.254 27.1-57.686 44.248-96.133 44.375h-256.028c-70.637 0-127.984-57.35-127.984-127.984 0-70.637 57.348-127.984 127.984-127.984h256.028c38.447 0.125 72.879 17.273 96.133 44.375zM1109.876 721.976c3.18 1.061 6.588 1.643 10.123 1.643 17.66 0 31.998-14.336 32.002-31.994v-167.164c-0.004-17.662-14.348-31.99-32.010-31.99-3.539 0-6.943 0.576-10.127 1.639l-149.625 49.941h-128.152v-127.984c0-17.66-14.342-31.996-32-31.996h-32.004c-17.66 0-32.002 14.336-32.004 31.996v383.952c0.002 17.66 14.344 31.996 32.004 31.996h32.004c17.658 0 32-14.336 32-31.996v-127.982h127.918z" />
<glyph unicode="&#xe026;" glyph-name="refrigerator" data-tags="refrigerator" horiz-adv-x="768" d="M672 960c52.984 0 96-43.016 96-96v-832c0-52.984-43.016-96-96-96h-576c-52.984 0-96 43.016-96 96v832c0 52.984 43.016 96 96 96h576zM672 864h-576v-256h384v128c0 17.662 14.338 32 32 32h32c17.662 0 32-14.338 32-32v-128h96v256zM96 32h576v480h-96v-288c0-17.662-14.338-32-32-32h-32c-17.662 0-32 14.338-32 32v288h-384v-480z" />
<glyph unicode="&#xe027;" glyph-name="rocket-launch" data-tags="rocket-launch" d="M71.371 255.867c80.57 80.562 188.004 85.738 261.13 12.621 73.133-73.125 67.957-180.539-12.621-261.098-51.506-51.508-180.498-77.328-318.728-70.211-7.051 137.633 18.504 266.98 70.219 318.688zM234.636 87.805c26.855 26.852 28.578 62.652 4.203 87.027-24.375 24.371-60.18 22.645-87.035-4.207-17.238-17.234-25.754-60.348-23.406-106.219 46.070-2.375 89.066 6.23 106.238 23.398zM1010.326 921.406c13.824-64.211 13.824-114.512 13.637-164.812 0-205.376-110.863-329.562-256.040-422.188v-208.876c0-32.559-23.828-71.117-52.949-85.688l-197.496-98.812c-6.545-2.961-13.828-4.75-21.406-5.031-26.49 0.004-47.998 21.51-48.008 48v208c-0.006 105.969-86.057 192-192.025 192h-207.906c-26.492 0.004-48 21.51-48.008 48 0.273 7.58 2.064 14.863 5.031 21.406l98.844 197.598c14.578 29.148 53.184 52.996 85.777 52.996h208.404c92.418 145.594 216.218 256 422.656 256 50.090 0 100.395 0 164.586-13.727 10.926-2.336 22.551-13.941 24.902-24.867zM716.276 415.336c148.367 94.66 211.672 196.719 211.672 341.258 0.125 33.973 0.246 66.383-4.363 102.91-35.664 4.496-67.449 4.496-102.746 4.496-145.355 0-247.512-63.234-341.59-211.442-32.633-51.406-13.68-15.539-104.426-198.906 63.254-28.871 113.914-79.502 142.82-142.734 183.621 90.938 147.969 72.094 198.633 104.418zM736.112 752c44.148-0.016 79.99-35.854 80.012-80 0-44.152-35.846-80-80-80-44.152 0-80 35.848-80 80 0 44.148 35.842 79.994 79.988 80z" />
<glyph unicode="&#xe028;" glyph-name="sensor" data-tags="sensor" horiz-adv-x="896" d="M400 704c26.492 0 48-21.508 48-48v-224c0-26.492-21.508-48-48-48s-48 21.508-48 48v224c0 26.492 21.508 48 48 48zM240 704c26.492 0 48-21.508 48-48v-224c0-26.492-21.508-48-48-48s-48 21.508-48 48v224c0 26.492 21.508 48 48 48zM768 896c70.645 0 128-57.355 128-128v-640c0-70.645-57.355-128-128-128h-640c-70.645 0-128 57.355-128 128v640c0 70.645 57.355 128 128 128h640zM800 128v640c0 17.662-14.338 32-32 32h-640c-17.662 0-32-14.338-32-32v-640c0-17.662 14.338-32 32-32h640c17.662 0 32 14.338 32 32z" />
<glyph unicode="&#xe029;" glyph-name="sensor-alert" data-tags="sensor-alert" horiz-adv-x="1280" d="M1266.18 153.26c39.301-68.119-9.879-153.26-88.539-153.26h-563.282c-78.66 0-127.84 85.141-88.539 153.279l281.66 488.282c39.32 68.199 137.74 68.199 177.059 0zM896 96c26.492 0 48 21.508 48 48s-21.508 48-48 48-48-21.508-48-48 21.508-48 48-48zM934.16 261.6l19.199 192c0.080 0.797 0.121 1.582 0.121 2.4 0 13.246-10.754 24-24 24h-66.941c-13.244 0-24-10.73-24-23.977 0-0.816 0.041-1.627 0.121-2.424l19.18-192c1.217-12.109 11.451-21.6 23.879-21.6h28.56c12.428 0 22.664 9.49 23.881 21.6zM352 656c0 26.492 21.508 48 48 48s48-21.508 48-48v-224c0-26.492-21.508-48-48-48s-48 21.508-48 48v224zM448.7 96c0.873-27.826 8.742-54.191 21.74-76.92 4.1-7.080 9.641-12.779 14.58-19.080h-357.020c-70.645 0-128 57.355-128 128v640c0 70.645 57.355 128 128 128h640c70.645 0 128-57.355 128-128v-11.301c-35.68 0-68.4-12.039-96-31.84v43.141c0 17.662-14.338 32-32 32h-640c-17.662 0-32-14.338-32-32v-640c0-17.662 14.338-32 32-32h320.7zM192 656c0 26.492 21.508 48 48 48s48-21.508 48-48v-224c0-26.492-21.508-48-48-48s-48 21.508-48 48v224z" />
<glyph unicode="&#xe02a;" glyph-name="sensor-fire" data-tags="sensor-fire" horiz-adv-x="1280" d="M651.6 96c27.215-37.803 60.41-69.973 99.1-96h-622.7c-70.645 0-128 57.355-128 128v640c0 70.645 57.355 128 128 128h640c50.496-0.139 94.070-29.545 114.641-72.24l-46-45.4c-12.641-11.799-24.641-24.26-36.641-36.58v26.221c0 17.662-14.338 32-32 32h-640c-17.662 0-32-14.338-32-32v-640c0-17.662 14.338-32 32-32h523.6zM352 656c0 26.492 21.508 48 48 48s48-21.508 48-48v-224c0-26.492-21.508-48-48-48s-48 21.508-48 48v224zM192 656c0 26.492 21.508 48 48 48s48-21.508 48-48v-224c0-26.492-21.508-48-48-48s-48 21.508-48 48v224zM1102.28 658.28c103.5-96.059 177.721-253.040 177.721-329.138 0-181.801-143.32-329.14-320-329.14s-320 147.34-320 329.14c0 102.279 99.641 272.058 240 402.28 52.623-48.506 99.578-101.004 142-158.82 24.947 30.592 51.398 58.818 80.279 85.68zM1060.14 158.16c61.559 43.080 75.959 126.539 41.639 191.779-4.119 8.061-8.818 16.441-14 24.98l-73.299-83.561s-114.84 146.641-123.5 156.641c-60.6-72.641-90.98-115.18-90.98-163.461 0-96.859 73.42-156.539 163.6-156.539 0.148 0 0.449 0.094 0.596 0.094 35.65 0 68.725 11.115 95.945 30.066z" />
<glyph unicode="&#xe02b;" glyph-name="sensor-on" data-tags="sensor-on" horiz-adv-x="1280" d="M1232 496c26.492 0 48-21.508 48-48s-21.508-48-48-48h-160c-26.492 0-48 21.508-48 48s21.508 48 48 48h160zM1072 672c-26.439 0.063-47.936 21.518-47.936 47.971 0 16.604 8.447 31.248 21.275 39.869l96 64c7.824 5.537 17.473 8.848 27.777 8.848 26.492 0 48-21.508 48-48 0-17.141-9.004-32.195-22.537-40.688l-96-64c-7.564-5.035-16.691-8-26.453-8h-0.127zM1098.58 216l96.039-64c12.943-8.613 21.381-23.273 21.381-39.971 0-26.52-21.529-48.049-48.049-48.049-9.822 0-18.959 2.953-26.57 8.020l-96 64c-12.947 8.609-21.389 23.271-21.389 39.971 0 26.514 21.523 48.037 48.037 48.037 9.813 0 18.943-2.949 26.551-8.008zM240 704c26.492 0 48-21.508 48-48v-224c0-26.492-21.508-48-48-48s-48 21.508-48 48v224c0 26.492 21.508 48 48 48zM400 704c26.492 0 48-21.508 48-48v-224c0-26.492-21.508-48-48-48s-48 21.508-48 48v224c0 26.492 21.508 48 48 48zM768 896c70.645 0 128-57.355 128-128v-640c0-70.645-57.355-128-128-128h-640c-70.645 0-128 57.355-128 128v640c0 70.645 57.355 128 128 128h640zM800 128v640c0 17.662-14.338 32-32 32h-640c-17.662 0-32-14.338-32-32v-640c0-17.662 14.338-32 32-32h640c17.662 0 32 14.338 32 32z" />
<glyph unicode="&#xe02c;" glyph-name="sensor-smoke" data-tags="sensor-smoke" horiz-adv-x="1280" d="M1145.34 317.44c76.236-12.053 134.768-78.137 134.768-157.74 0-88.141-71.559-159.699-159.699-159.699h-448.408c-88.307 0-160 71.693-160 160s71.693 160 160 160c1.119 0 2.16-0.34 3.279-0.34-2.145 10.434-3.336 21.209-3.336 32.275 0 88.24 71.639 159.879 159.879 159.879 67.496 0 125.279-41.916 148.717-101.115 17.488 22.748 44.891 37.293 75.773 37.293 52.773 0 95.619-42.846 95.619-95.621 0-12.324-2.338-24.107-6.592-34.932zM352 656c0 26.492 21.508 48 48 48s48-21.508 48-48v-224c0-26.492-21.508-48-48-48s-48 21.508-48 48v224zM128 96h330.44c10.793-36.799 30.729-69.725 57.281-96h-387.72c-70.645 0-128 57.355-128 128v640c0 70.645 57.355 128 128 128h640c70.645 0 128-57.355 128-128v-202.44c-20.52 6.139-41.721 10.439-64 10.439-10.918-0.242-21.523-1.271-32-3.039v195.039c0 17.662-14.338 32-32 32h-640c-17.662 0-32-14.338-32-32v-640c0-17.662 14.338-32 32-32zM192 656c0 26.492 21.508 48 48 48s48-21.508 48-48v-224c0-26.492-21.508-48-48-48s-48 21.508-48 48v224z" />
<glyph unicode="&#xe02d;" glyph-name="siren" data-tags="siren" horiz-adv-x="896" d="M832 288c35.322 0 64-28.678 64-64v-160c0-35.322-28.678-64-64-64h-768c-35.322 0-64 28.678-64 64v160c0 35.322 28.678 64 64 64v0l44.24 417.86c8.873 70.986 69.506 126.137 142.879 126.141h393.762c73.373-0.004 134.006-55.154 142.879-126.141zM203.5 694l-42.76-406h86.859l40.82 370.16c1.045 7.816 7.742 13.871 15.84 13.879 0.020 0.002 0.021 0.002 0.039 0.002 0.713 0 1.414-0.049 2.102-0.141l31.719-4.26c7.824-1.045 13.885-7.736 13.885-15.844 0-0.73-0.049-1.451-0.145-2.156l-39.68-361.64h423.080l-42.74 406c-2.979 23.641-23.18 42-47.623 42h-393.778c-24.441-0.002-44.641-18.361-47.619-42zM800 96v96h-704v-96h704z" />
<glyph unicode="&#xe02e;" glyph-name="siren-on" data-tags="siren-on" horiz-adv-x="1280" d="M181.381 808l-96 64c-13.533 8.492-22.443 23.49-22.443 40.631 0 26.492 21.51 48 48 48 10.307 0 19.857-3.254 27.682-8.791l96-64c13.533-8.492 22.443-23.49 22.443-40.631 0-26.492-21.51-48-48-48-10.307 0-19.857 3.254-27.682 8.791zM1072 800c-26.449 0.051-47.955 21.512-47.955 47.971 0 16.629 8.475 31.295 21.336 39.91l96 64c7.785 5.449 17.357 8.705 27.574 8.705 26.492 0 48-21.508 48-48 0-17.072-8.932-32.076-22.375-40.586l-96-64c-7.564-5.035-16.691-8-26.453-8h-0.127zM224 576c0-26.492-21.508-48-48-48h-128c-26.492 0-48 21.508-48 48s21.508 48 48 48h128c26.492 0 48-21.508 48-48zM1232 624c26.492 0 48-21.508 48-48s-21.508-48-48-48h-128c-26.492 0-48 21.508-48 48s21.508 48 48 48h128zM1024 288c35.322 0 64-28.678 64-64v-160c0-35.322-28.678-64-64-64h-768c-35.322 0-64 28.678-64 64v160c0 35.322 28.678 64 64 64l44.24 417.86c8.873 70.986 69.506 126.137 142.879 126.141h393.762c73.373-0.004 134.006-55.154 142.879-126.141zM395.5 694l-42.76-406h86.859l40.82 370.16c1.045 7.816 7.742 13.871 15.84 13.879 0.020 0.002 0.021 0.002 0.039 0.002 0.713 0 1.414-0.049 2.102-0.141l31.719-4.26c7.824-1.045 13.885-7.736 13.885-15.844 0-0.73-0.049-1.451-0.145-2.156l-39.68-361.64h423.080l-42.74 406c-2.979 23.641-23.18 42-47.623 42h-393.778c-24.441-0.002-44.641-18.361-47.619-42zM992 96v96h-704v-96h704z" />
<glyph unicode="&#xe02f;" glyph-name="solar-system" data-tags="solar-system" d="M783.556 719.532c33.289-33.285 35.285-84.113 9.467-121.516 64.592-121.031 47.32-274.254-54.725-376.29-57.924-57.924-137.969-93.727-226.276-93.727-176.613 0-320 143.387-320 320 0 176.605 143.375 319.986 319.976 320 51.842 0 103.113-13.973 150.031-39.008 37.406 25.812 88.24 23.82 121.525-9.461zM693.040 266.98c46.32 45.812 74.844 109.664 74.844 179.895 0 40.877-9.729 79.502-26.994 113.68-32.191-8.828-67.82-2.078-93.107 23.211-25.293 25.285-32.043 60.91-23.215 93.098-34.539 17.275-73.729 27.1-114.945 27.1-141.85 0-257.014-115.164-257.014-257.016 0-141.85 115.164-257.014 257.014-257.014 71.803 0 136.766 29.508 183.418 77.047zM512 608c88.27-0.088 159.92-71.732 160.018-160 0-88.307-71.693-160-160-160s-160 71.693-160 160c0 88.301 71.684 159.99 159.982 160zM512 384c35.309 0.033 63.971 28.691 64.008 64 0 35.322-28.678 64-64 64-35.324 0-64-28.678-64-64 0-35.32 28.674-63.996 63.992-64zM673.81 64.645c8.416-26.336 22.889-49.971 41.859-69.191 4.1-4.098 8.791-7.148 13.174-10.754-65.896-31.057-140.014-48.773-217.634-48.773-141.082 0-268.872 57.371-361.288 150.035-174.457 174.438-196.623 443.386-66.684 641.954-7.027 14.652-10.965 31.172-10.965 48.496 0 61.875 50.234 112.111 112.111 112.111s112.111-50.236 112.111-112.111c0-61.877-50.234-112.113-112.111-112.113-8.787 0-17.34 1.014-25.549 2.93-99.588-160.422-80.18-374.242 58.977-513.382 75.377-75.305 179.787-121.654 294.646-121.654 57.197 0 111.719 11.555 161.352 32.455zM874.078 810.040c174.457-174.438 196.623-443.386 66.684-641.954 7.027-14.652 10.965-31.172 10.965-48.494 0-61.879-50.238-112.117-112.117-112.117-61.877 0-112.115 50.238-112.115 112.117s50.238 112.115 112.115 112.115c8.791 0 17.346-1.014 25.555-2.93 99.584 160.422 80.176 374.242-58.977 513.378-75.377 75.305-179.787 121.654-294.646 121.654-57.197 0-111.719-11.555-161.352-32.455-8.414 26.34-22.887 49.975-41.859 69.195-4.096 4.094-8.787 7.145-13.17 10.75 65.895 31.057 140.014 48.773 217.634 48.773 141.080 0 268.868-57.371 361.284-150.035z" />
<glyph unicode="&#xe030;" glyph-name="sort-circle" data-tags="sort-circle" d="M701.76 906.12c253.020-104.799 373.16-394.86 268.36-647.878-79.1-190.961-263.718-306.24-458.318-306.24-67.018 0.031-131.266 13.645-189.561 37.881-253.020 104.799-373.16 394.86-268.36 647.878 79.1 190.961 263.718 306.24 458.318 306.24 67.018-0.031 131.266-13.645 189.561-37.881zM881.44 294.98c84.361 203.7-12.699 438.080-216.42 522.458-47.125 19.574-98.885 30.818-153.059 30.818-166.584 0-309.49-102.186-369.4-247.238-84.381-203.7 12.719-438.080 216.42-522.458 47.125-19.574 98.885-30.818 153.059-30.818 166.584 0 309.49 102.186 369.4 247.238zM329.5 512c-32.801 0-49.18 39.699-26 62.82l182.5 182.359c6.637 6.691 15.844 10.838 26.004 10.838s19.359-4.146 25.996-10.838l182.221-182.359c23.18-23.121 6.799-62.82-26-62.82h-364.72zM694.22 384c32.818 0 49.18-39.699 26.139-62.82l-182.359-182.359c-6.637-6.691-15.844-10.838-26.004-10.838s-19.359 4.146-25.996 10.838l-182.5 182.359c-23.18 23.121-6.801 62.82 26 62.82h364.72z" />
<glyph unicode="&#xe031;" glyph-name="sort-circle-down" data-tags="sort-circle-down" d="M701.76 906.12c253.020-104.799 373.16-394.86 268.36-647.878-79.1-190.961-263.718-306.24-458.318-306.24-67.018 0.031-131.266 13.645-189.561 37.881-253.020 104.799-373.16 394.86-268.36 647.878 79.1 190.961 263.718 306.24 458.318 306.24 67.018-0.031 131.266-13.645 189.561-37.881zM881.44 294.98c84.381 203.7-12.719 438.080-216.42 522.458-47.125 19.574-98.885 30.818-153.059 30.818-166.584 0-309.49-102.186-369.4-247.238-84.361-203.7 12.699-438.080 216.42-522.458 47.125-19.574 98.885-30.818 153.059-30.818 166.584 0 309.49 102.186 369.4 247.238zM694.5 384c32.801 0 49.18-39.699 26-62.82l-182.5-182.359c-6.637-6.691-15.844-10.838-26.004-10.838s-19.359 4.146-25.996 10.838l-182.221 182.359c-23.18 23.121-6.799 62.82 26 62.82h364.72zM538 757.18l182.5-182.359c23.18-23.121 6.801-62.82-26-62.82h-364.86c-32.76 0-49.121 39.699-26 62.82l182.359 182.359c6.637 6.691 15.844 10.838 26.004 10.838s19.359-4.146 25.996-10.838zM395.4 576h233.42l-116.82 116.66z" />
<glyph unicode="&#xe032;" glyph-name="sort-circle-up" data-tags="sort-circle-up" d="M701.76 906.12c253.020-104.799 373.16-394.86 268.36-647.878-79.1-190.961-263.718-306.24-458.318-306.24-67.018 0.031-131.266 13.645-189.561 37.881-253.020 104.799-373.16 394.86-268.36 647.878 79.1 190.961 263.718 306.24 458.318 306.24 67.018-0.031 131.266-13.645 189.561-37.881zM881.44 294.98c84.361 203.7-12.699 438.080-216.42 522.458-47.125 19.574-98.885 30.818-153.059 30.818-166.584 0-309.49-102.186-369.4-247.238-84.381-203.7 12.719-438.080 216.42-522.458 47.125-19.574 98.885-30.818 153.059-30.818 166.584 0 309.49 102.186 369.4 247.238zM329.5 512c-32.801 0-49.18 39.699-26 62.82l182.5 182.359c6.637 6.691 15.844 10.838 26.004 10.838s19.359-4.146 25.996-10.838l182.221-182.359c23.18-23.121 6.799-62.82-26-62.82h-364.72zM694.22 384c32.818 0 49.18-39.699 26.139-62.82l-182.359-182.359c-6.637-6.691-15.844-10.838-26.004-10.838s-19.359 4.146-25.996 10.838l-182.5 182.359c-23.18 23.121-6.801 62.82 26 62.82h364.72zM512 203.34l116.6 116.66h-233.42z" />
<glyph unicode="&#xe033;" glyph-name="space-station-moon" data-tags="space-station-moon" d="M512 944c273.934 0 496-222.066 496-496s-222.066-496-496-496-496 222.066-496 496 222.066 496 496 496zM352 736c-35.305-0.041-63.959-28.695-64-64 0-35.322 28.678-64 64-64s64 28.678 64 64-28.678 64-64 64zM193.746 689.316c-51.139-66.064-81.76-148.881-81.76-238.81 0-22.275 1.867-44.119 5.455-65.381 120.945-51.762 254.806-80.961 394.558-81.125 139.662 0.037 273.45 28.973 394.446 80.398 3.51 20.807 5.4 41.84 5.555 63.602 0 220.562-179.438 400-400 400-43.541-0.043-85.523-7.193-124.742-20.184 71.318-16.111 124.742-79.912 124.742-156.072 0-88.307-71.693-160-160-160s-160 71.693-160 160v0.256c0.266 5.877 0.852 11.623 1.746 17.316zM512 48c155.332 0 289.946 89.184 356.172 218.868-111.756-37.881-231.708-58.77-356.172-58.867-124.609 0.088-244.68 21.176-356.43 59.395 66.133-129.965 200.886-219.394 356.43-219.394z" />
<glyph unicode="&#xe034;" glyph-name="space-station-moon-alt" data-tags="space-station-moon-alt" d="M912 544c52.984 0 96-43.016 96-96-0.086-28.896-2.697-56.803-7.637-84.305-6.523-36.803-34.076-66.463-69.754-75.992-7.016-1.875-97.004-31.422-136.43-41.82 46.555-6.227 82.648-46.133 82.648-94.381 0-28.113-12.209-53.398-31.609-70.838-87.824-79.891-204.676-128.664-332.636-128.664h-0.582c-273.934 0-496 222.066-496 496s222.066 496 496 496c109.762-0.293 211.702-36.352 294-96.777 23.723-17.486 39.039-45.574 39.039-77.277v-25.648c0-0.018 0.102 0.027 0.102 0.012 0-34.576-18.328-64.904-45.793-81.789h8.949c52.984 0 96-43.016 96-96v-22.52h7.703zM352 736c-35.305-0.041-63.959-28.695-64-64 0-35.322 28.678-64 64-64s64 28.678 64 64-28.678 64-64 64zM193.746 689.316c-51.139-66.064-81.76-148.881-81.76-238.81 0-22.275 1.867-44.119 5.455-65.381 120.945-51.762 254.806-80.961 394.558-81.125 139.633 0.164 273.386 29.312 394.25 80.992 3.598 20.586 5.557 41.445 5.75 63.008h-148.148c-8.176 0.002-14.813 6.641-14.813 14.816v29.629c0 8.176 6.637 14.814 14.813 14.816h44.445v59.258h-103.703c-8.176 0.002-14.813 6.641-14.813 14.816v103.703h-44.445c-8.176 0-14.814 6.637-14.816 14.813v29.633c0 8.176 6.637 14.813 14.813 14.813h103.707v25.648c-66.098 48.92-148.266 77.953-236.732 77.953-43.678 0-85.719-7.053-125.049-20.082 71.318-16.111 124.742-79.912 124.742-156.072 0-88.307-71.693-160-160-160s-160 71.693-160 160v0.256c0.266 5.877 0.852 11.623 1.746 17.316zM719.41 151.703c-16.354 0-29.629 13.279-29.629 29.633v42.465c-57.859-9.395-116.879-15.801-177.781-15.801-124.609 0.088-244.68 21.176-356.43 59.395 66.133-129.965 200.886-219.394 356.43-219.394 0.201 0 0.545 0.039 0.746 0.039 103.119 0 197.137 39.273 267.902 103.664h-61.238z" />
<glyph unicode="&#xe035;" glyph-name="sprinkler" data-tags="sprinkler" d="M48 752c26.492 0 48-21.508 48-48s-21.508-48-48-48-48 21.508-48 48 21.508 48 48 48zM48 544c26.492 0 48-21.508 48-48s-21.508-48-48-48-48 21.508-48 48 21.508 48 48 48zM176 768c-26.492 0-48 21.508-48 48s21.508 48 48 48 48-21.508 48-48-21.508-48-48-48zM976 864c-26.492 0-48 21.508-48 48s21.508 48 48 48 48-21.508 48-48-21.508-48-48-48zM720 656c-26.492 0-48 21.508-48 48s21.508 48 48 48 48-21.508 48-48-21.508-48-48-48zM304 656c-26.492 0-48 21.508-48 48s21.508 48 48 48 48-21.508 48-48-21.508-48-48-48zM976 544c26.492 0 48-21.508 48-48s-21.508-48-48-48-48 21.508-48 48 21.508 48 48 48zM848 832c26.492 0 48-21.508 48-48s-21.508-48-48-48-48 21.508-48 48 21.508 48 48 48zM976 752c26.492 0 48-21.508 48-48s-21.508-48-48-48-48 21.508-48 48 21.508 48 48 48zM48 960c26.492 0 48-21.508 48-48s-21.508-48-48-48-48 21.508-48 48 21.508 48 48 48zM848 640c26.492 0 48-21.508 48-48s-21.508-48-48-48-48 21.508-48 48 21.508 48 48 48zM796.38 448c0.006 0-0.004-0.029 0.002-0.029 19.615 0 35.541-15.926 35.541-35.541 0-7.992-2.645-15.371-7.104-21.311l-135.041-156.459-49.779-49.779v-216.88c0-17.662-14.338-32-32-32h-192c-17.662 0-32 14.338-32 32v216.88l-49.779 49.779-135.041 156.459c-4.459 5.939-7.119 13.35-7.119 21.342 0 19.613 15.924 35.539 35.539 35.539h220.4v352c0 17.662 14.338 32 32 32h64c17.662 0 32-14.338 32-32v-352h220.38zM544 224.641l120.24 127.359h-304.48l120.24-127.359v-192.641h64v192.641zM224 624c0-26.492-21.508-48-48-48s-48 21.508-48 48 21.508 48 48 48 48-21.508 48-48z" />
<glyph unicode="&#xe036;" glyph-name="star-shooting" data-tags="star-shooting" d="M617.364 575.992c-5.793 5.793-9.377 13.801-9.377 22.633 0 8.83 3.584 16.832 9.377 22.625l329.388 329.378c5.793 5.791 13.801 9.375 22.631 9.375s16.83-3.584 22.623-9.375l22.621-22.621c5.793-5.793 9.377-13.803 9.377-22.633s-3.584-16.83-9.377-22.621l-329.388-329.378c-5.791-5.795-13.801-9.381-22.631-9.381-8.832 0-16.832 3.586-22.623 9.381zM479.98 777.376l-22.621 22.617c-5.791 5.793-9.377 13.801-9.377 22.633 0 8.83 3.586 16.832 9.377 22.625l105.385 105.379c5.793 5.791 13.801 9.375 22.633 9.375 8.83 0 16.83-3.584 22.623-9.375l22.621-22.621c5.791-5.793 9.377-13.803 9.377-22.633s-3.586-16.83-9.377-22.621l-105.385-105.379c-5.793-5.795-13.801-9.381-22.633-9.381-8.83 0-16.83 3.586-22.623 9.381zM992.006 566.628l22.621-22.621c5.793-5.793 9.377-13.801 9.377-22.633 0-8.83-3.584-16.83-9.377-22.621l-105.385-105.379c-5.791-5.795-13.801-9.381-22.631-9.381-8.832 0-16.832 3.586-22.623 9.381l-22.621 22.617c-5.793 5.793-9.377 13.801-9.377 22.633 0 8.83 3.584 16.832 9.377 22.625l105.385 105.379c5.793 5.791 13.801 9.375 22.631 9.375s16.83-3.584 22.623-9.375zM728.588 425.45c37.594-5.406 52.812-51.812 25.594-78.406l-151.785-148 35.783-209.188c0.436-2.543 0.662-5.113 0.662-7.781 0-25.361-20.574-45.955-45.93-45.988-7.688 0.020-14.98 1.975-21.328 5.363l-187.598 98.781-187.596-98.781c-6.334-3.441-13.635-5.432-21.342-5.449-25.354 0.107-45.91 20.684-45.91 46.064 0 2.654 0.225 5.258 0.656 7.791l36 209.188-151.814 148c-27.406 26.594-12.188 73 25.406 78.406l209.598 30.594 93.814 190.406c7.477 15.213 23.078 25.695 41.162 25.695s33.738-10.482 41.215-25.695l93.814-190.406zM499.268 232.566l115.373 112.496-159.461 23.277-71.193 144.492-71.191-144.492-159.285-23.25 115.463-112.559-27.32-158.754 142.334 74.949 142.453-75.008z" />
<glyph unicode="&#xe037;" glyph-name="starfighter" data-tags="starfighter" horiz-adv-x="1280" d="M576 448c0 35.322 28.678 64 64 64s64-28.678 64-64v-96c0-17.66-14.34-32-32-32h-64c-17.66 0-32 14.34-32 32v96zM1248 704h32v-64h-32v-528c0-0.080 0.025-0.197 0.025-0.277 0-26.361-21.402-47.766-47.764-47.766-19.168 0-35.713 11.314-43.316 27.621l-212.946-85.18v-38.398c0-17.66-14.34-32-32-32h-32c-17.66 0-32 14.34-32 32v33.617c-17.184 2.135-33.568 7.809-47.902 16.137-13.527-10.469-29.699-17.754-48.098-17.754h-224c-18.398 0-34.57 7.281-48.098 17.754-14.334-8.328-30.719-14.004-47.902-16.137v-33.617c0-17.66-14.34-32-32-32h-32c-17.66 0-32 14.34-32 32v38.398l-212.946 85.18c-7.604-16.307-24.123-27.584-43.289-27.584-26.363 0-47.766 21.404-47.766 47.766v528.24h-32v64h32v16c0 26.492 21.508 48 48 48s48-21.508 48-48v-16h32v-64h-32v-384h96v96c0.080 70.607 57.393 127.92 128 128h64c14.352-0.168 28.201-2.771 41.027-7.352l51.848 417.29c4.99 39.4 38.643 70.002 79.375 70.062h103.5c40.732-0.061 74.385-30.662 79.375-70.062l52.152-417.196c12.74 4.518 26.482 7.088 40.723 7.258h64c70.607-0.080 127.92-57.393 128-128v-96h96v384h-32v64h32v16c0 26.492 21.508 48 48 48s48-21.508 48-48v-16zM448 128v224c0 17.66-14.34 32-32 32h-64c-17.66 0-32-14.34-32-32v-224c0-17.66 14.34-32 32-32h64c17.66 0 32 14.34 32 32zM736 128v272l-58.375 464h-75.25l-58.75-469.968 0.336-266.070c0.021-17.643 14.352-31.961 32-31.961h128.039c17.66 0 32 14.34 32 32zM960 128v224c0 17.66-14.34 32-32 32h-64c-17.66 0-32-14.34-32-32v-224c0-17.66 14.34-32 32-32h64c17.66 0 32 14.34 32 32z" />
<glyph unicode="&#xe038;" glyph-name="starfighter-alt" data-tags="starfighter-alt" horiz-adv-x="1152" d="M1120 896c17.66 0 32-14.34 32-32v-832c0-17.66-14.34-32-32-32h-32c-17.66 0-32 14.34-32 32v294.532l-212.278-53.070c-57.121-87.438-155.488-145.461-267.722-145.461s-210.602 58.023-267.722 145.461l-212.278 53.070v-294.532c0-17.66-14.34-32-32-32h-32c-17.66 0-32 14.34-32 32v832c0 17.66 14.34 32 32 32h32c17.66 0 32-14.34 32-32v-294.532l212.278 53.070c57.121 87.438 155.488 145.461 267.722 145.461s210.602-58.023 267.722-145.461l212.278-53.070v294.532c0 17.66 14.34 32 32 32h32zM262.464 383.852c-4.236 20.807-6.461 41.857-6.461 63.906 0 22.051 2.225 43.584 6.461 64.391l-150.465-37.617v-53.062zM608 668.766v-80.617c15.893-3.648 31.010-10.037 44.391-18.508l57.141 57.141c-29.035 21.73-63.979 36.627-101.531 41.984zM544 668.766c-37.553-5.357-72.496-20.254-101.531-41.984l57.141-57.141c13.381 8.471 28.498 14.859 44.391 18.508v80.617zM397.218 581.532c-21.73-29.035-36.627-63.979-41.984-101.531h80.617c3.646 15.895 10.037 31.012 18.508 44.391zM355.234 416c5.357-37.553 20.254-72.494 41.988-101.527l57.137 57.137c-8.471 13.381-14.859 28.498-18.508 44.391h-80.617zM544 227.234v80.617c-15.893 3.648-31.010 10.037-44.391 18.508l-57.137-57.137c29.033-21.734 63.975-36.631 101.527-41.988zM528 448c0.029-26.479 21.521-47.971 48-48 26.492 0 48 21.508 48 48s-21.508 48-48 48-48-21.508-48-48zM608 227.234c37.553 5.355 72.496 20.252 101.531 41.984l-57.141 57.141c-13.381-8.471-28.498-14.859-44.391-18.508v-80.617zM754.778 314.472c21.734 29.033 36.631 63.975 41.988 101.527h-80.617c-3.648-15.893-10.037-31.010-18.508-44.391zM716.148 480h80.617c-5.357 37.553-20.254 72.496-41.984 101.531l-57.141-57.141c8.471-13.379 14.861-28.496 18.508-44.391zM1040 421.468v53.062l-150.465 37.617c4.236-20.807 6.461-41.857 6.461-63.906 0-22.051-2.225-43.584-6.461-64.391z" />
<glyph unicode="&#xe039;" glyph-name="starship" data-tags="starship" horiz-adv-x="1280" d="M896 832c212.078 0 384-171.922 384-384s-171.922-384-384-384c-157.094 0-291.954 94.445-351.426 229.554l-142.305 12.938-75.738-50.492h57.469c70.645 0 128-57.355 128-128s-57.355-128-128-128h-320c-35.322 0-64 28.678-64 64v128c0 35.322 28.678 64 64 64h89.469l96.508 64.336c-78.965 7.197-121.977 65.887-121.977 127.664 0 62.957 44.547 120.631 121.98 127.656l-96.512 64.344h-89.469c-35.322 0-64 28.678-64 64v128c0 35.322 28.678 64 64 64h320c70.645 0 128-57.355 128-128s-57.355-128-128-128h-57.469l75.742-50.492 142.301 12.938c59.477 135.109 194.332 229.554 351.426 229.554zM96 736h288c17.662 0 32 14.338 32 32s-14.338 32-32 32h-288v-64zM384 160h-288v-64h288c17.662 0 32 14.338 32 32s-14.338 32-32 32zM516.458 392.528c-2.801 18.211-4.309 36.518-4.457 55.473 0.148 18.953 1.656 37.26 4.457 55.469l-263.644-23.969c-16.125-1.441-28.781-15.008-28.781-31.504 0-16.475 12.625-30.025 28.719-31.496zM896 160c158.805 0 288 129.195 288 288s-129.195 288-288 288-288-129.195-288-288 129.195-288 288-288zM896 608c88.305 0 160-71.695 160-160 0-88.307-71.693-160-160-160s-160 71.693-160 160 71.693 160 160 160zM896 384c35.322 0 64 28.678 64 64s-28.678 64-64 64-64-28.678-64-64 28.678-64 64-64z" />
<glyph unicode="&#xe03a;" glyph-name="starship-freighter" data-tags="starship-freighter" horiz-adv-x="1152" d="M255.994 288c17.662-0.002 32-14.34 32-32 0-17.662-14.338-32-32-32-17.66 0-32 14.338-32 32s14.34 32 32 32zM191.996 480c17.66-0.002 31.998-14.34 32-32 0-17.662-14.338-32-32-32-17.66 0-32 14.338-32 32s14.34 32 32 32zM255.994 672c17.662-0.002 32-14.34 32-32 0-17.662-14.338-32-32-32-17.66 0-32 14.338-32 32s14.34 32 32 32zM1109.912 687.336c24.557-8.947 42.088-32.498 42.088-60.133v-358.406c0-27.635-17.531-51.186-42.088-60.133l-115.533-42.094c18.521-24.152 29.611-54.473 29.611-87.23 0-79.113-64.229-143.342-143.342-143.342-0.223 0-0.445 0-0.67 0.002h-143.996c-0.012 0 0.059-0.139 0.049-0.139-48.961 0-92.242 24.51-118.232 61.92l-18.168 26.113c-49.061-15.234-99.979-23.891-150.762-23.891-58.295 0-116.244 10.828-170.43 34.297-287.122 124.367-278.41 413.7-278.41 413.7s-8.219 289.554 278.41 413.7c54.193 23.477 112.127 34.301 170.43 34.301 60.916-0.313 119.588-11.383 173.785-31.125zM448.87 96.004c30.523 0 61.33 4.977 92.115 12.199l-121.963 175.324c-66.959 24.922-115.027 88.941-115.027 164.473v0.061c0 97.135 78.861 175.996 175.996 175.996 97.133 0 175.994-78.861 175.994-175.996v-0.061c0-0.262-0.078-0.5-0.078-0.762l107.088-153.91c23.348 46.457 36.779 99.225 36.986 154.672 0 298.414-287.016 352.028-351.412 351.972-195.602-0.16-354.984-166.547-352.54-352.032-2.852-172.094 145.908-351.938 352.84-351.938zM559.986 448c0 44.152-35.846 80-79.996 80-44.152 0-79.998-35.846-79.998-79.998s35.846-79.998 79.998-79.998c44.15 0 79.996 35.846 79.996 79.996zM879.978 32c26.492 0 48 21.508 48 48s-21.508 48-48 48h-118.934l-145.492 209.14c-20.436-25.025-47.535-44.146-78.701-54.891l159.758-229.656c8.654-12.469 23.049-20.594 39.363-20.594h144.006zM1056.002 291.196v92.809l-0.027-0.004h-164.773c-8.533-57.33-28.35-112.014-56.643-160h37.023zM1056.002 511.996v92.809l-231.784 84.453c33.986-52.227 57.541-112.955 66.963-177.258h164.793z" />
<glyph unicode="&#xe03b;" glyph-name="sword-laser" data-tags="sword-laser" d="M353.070 513.006l226.274-226.278c2.896-2.895 4.689-6.898 4.689-11.314 0-4.414-1.793-8.414-4.689-11.311l-22.625-22.629c-2.896-2.895-6.9-4.686-11.316-4.686s-8.416 1.791-11.313 4.686l-11.32 11.324-284.786-284.8c-19.773-19.775-47.113-32.014-77.262-32.014-30.145 0-57.453 12.236-77.227 32.010l-51.5 51.504c-19.773 19.775-32.012 47.115-32.012 77.262s12.238 57.457 32.012 77.23l284.782 284.8-8.961 8.957c-2.896 2.896-4.689 6.902-4.689 11.318 0 4.414 1.793 8.416 4.689 11.311l22.625 22.629c2.896 2.896 6.902 4.688 11.316 4.688 4.416 0 8.416-1.791 11.313-4.688zM170.102 35.877l126.398 126.406-70.227 70.227-126.395-126.398c-2.393-2.398-3.875-5.715-3.875-9.369s1.482-6.965 3.875-9.365l51.504-51.508c2.398-2.389 5.709-3.865 9.357-3.865 3.652 0 6.963 1.48 9.361 3.873zM319.124 184.908l22.629 22.629-70.227 70.227-22.629-22.625zM364.382 230.166l22.625 22.629-70.23 70.227-22.621-22.629zM409.632 275.424l22.629 22.625-70.227 70.227-22.629-22.625zM1006.566 942.57c10.773-10.777 17.43-25.688 17.43-42.115 0-15.598-6.010-29.801-15.84-40.422l-436.426-475.176-122.871 122.871 475.176 436.432c10.619 9.826 24.852 15.848 40.447 15.848 16.426 0 31.309-6.666 42.084-17.438z" />
<glyph unicode="&#xe03c;" glyph-name="sword-laser-alt" data-tags="sword-laser-alt" d="M237.984-32.004c-19.775-19.773-47.115-32.012-77.262-32.012s-57.457 12.238-77.23 32.012l-51.496 51.5c-19.773 19.775-32.012 47.117-32.012 77.264s12.238 57.457 32.012 77.232l264.622 264.636c5.791 5.791 13.795 9.371 22.625 9.371h319.016c28.461 0 42.758-34.375 22.691-54.562zM345.75 352l-70.254-70.262 70.227-70.23 140.48 140.492h-140.453zM99.871 87.383l11.555-11.551 139.734 139.742-20.91 20.914-130.375-130.379c-2.4-2.396-3.885-5.711-3.885-9.367 0-3.654 1.482-6.963 3.881-9.359zM151.375 35.879c2.396-2.396 5.711-3.881 9.365-3.881 3.652 0 6.963 1.484 9.361 3.881l130.375 130.379-20.918 20.918-139.734-139.742zM1006.566 942.57c10.773-10.777 17.43-25.688 17.43-42.115 0-15.598-6.010-29.801-15.84-40.42l-319.656-348.036h-234.988l470.524 432.16c10.619 9.826 24.852 15.848 40.447 15.848 16.426 0 31.307-6.666 42.084-17.438z" />
<glyph unicode="&#xe03d;" glyph-name="swords-laser" data-tags="swords-laser" horiz-adv-x="1280" d="M273.542 942.566c10.775 10.773 25.686 17.43 42.109 17.43 15.596 0 29.799-6.012 40.418-15.84l347.994-319.656v-234.988l-432.112 470.524c-9.826 10.619-15.846 24.852-15.846 40.447 0 16.426 6.664 31.307 17.436 42.084zM1248.008 173.984c19.771-19.773 32.008-47.117 32.008-77.262s-12.236-57.457-32.008-77.232l-51.494-51.494c-19.771-19.773-47.111-32.012-77.254-32.012-30.145 0-57.453 12.238-77.225 32.012l-264.608 264.622c-5.791 5.791-9.369 13.795-9.369 22.625v319.016c0 17.658 14.342 32 32.002 32 8.795 0 16.768-3.557 22.555-9.309zM864.046 281.75l70.254-70.254 70.223 70.227-140.477 140.48v-140.453zM1128.634 35.871l11.549 11.553-139.727 139.736-20.912-20.91 130.365-130.377c2.396-2.398 5.711-3.883 9.365-3.883s6.963 1.482 9.359 3.881zM1180.132 87.373c2.396 2.396 3.879 5.713 3.879 9.365 0 3.654-1.482 6.965-3.879 9.363l-130.365 130.375-20.914-20.918 139.725-139.736zM829.214 665.372c-9.092 3.064-18.842 4.811-28.93 4.949-0.039 0-0.16-0.055-0.199-0.055-14.723 0-28.676-3.328-41.145-9.273l-71.606 65.774 236.596 217.392c10.617 9.828 24.836 15.822 40.43 15.822 32.854 0 59.525-26.672 59.525-59.525 0-15.598-6.012-29.803-15.844-40.422zM481.312 537.458l115.18-125.422-68.234-74.277 51.021-51.027c2.896-2.896 4.689-6.9 4.689-11.316 0-4.414-1.793-8.414-4.689-11.309l-22.623-22.629c-2.896-2.896-6.9-4.688-11.316-4.688-4.414 0-8.414 1.791-11.311 4.688l-11.318 11.324-284.754-284.802c-19.77-19.773-47.107-32.014-77.252-32.014-30.143 0-57.447 12.238-77.219 32.012l-51.494 51.502c-19.771 19.775-32.008 47.117-32.008 77.262s12.236 57.457 32.008 77.232l284.75 284.8-8.961 8.957c-2.896 2.895-4.688 6.9-4.688 11.316s1.791 8.416 4.688 11.313l22.623 22.629c2.896 2.895 6.9 4.686 11.316 4.686 4.414 0 8.414-1.791 11.311-4.686l48.686-48.691zM170.082 35.879l126.385 126.406-70.219 70.227-126.381-126.398c-2.393-2.4-3.873-5.717-3.873-9.369 0-3.654 1.48-6.967 3.873-9.365l51.498-51.508c2.398-2.391 5.709-3.867 9.357-3.867 3.652 0 6.961 1.48 9.359 3.875zM319.090 184.91l22.625 22.629-70.217 70.227-22.627-22.625zM364.342 230.168l22.623 22.629-70.223 70.227-22.619-22.629zM409.586 275.426l22.627 22.625-70.219 70.227-22.625-22.625z" />
<glyph unicode="&#xe03e;" glyph-name="telescope" data-tags="telescope" horiz-adv-x="1280" d="M1277.554 526.338c1.561-3.768 2.459-7.904 2.459-12.234 0-13.33-8.172-24.768-19.773-29.574l-234.632-97.195c-3.766-1.559-7.898-2.453-12.225-2.453-13.334 0-24.773 8.17-29.58 19.773l-6.473 15.629-193.451-66.75c0.004-0.523 0.156-1.008 0.156-1.535-0.143-33.672-12.037-64.713-31.721-89.045l94.939-284.832c1.061-3.18 1.643-6.586 1.643-10.121 0-17.66-14.34-32-32-32h-33.721c-14.127 0.002-26.119 9.172-30.357 21.883l-84.326 252.992c-9.225-1.885-18.563-2.873-28.34-2.873-9.779 0-19.328 0.988-28.555 2.873l-84.324-252.992c-4.236-12.711-16.229-21.881-30.354-21.883h-33.725c-17.66 0.002-31.99 14.346-31.99 32.008 0 3.533 0.574 6.934 1.633 10.113l94.939 284.832c-0.465 0.582-0.965 1.133-1.422 1.723l-253.752-87.559c-17.689-6.074-36.174 1.551-42.543 16.934l-17.488 42.215-128.209-53.109c-3.768-1.561-7.902-2.457-12.23-2.457-13.332 0-24.771 8.172-29.58 19.777l-40.109 96.844c-1.561 3.766-2.457 7.9-2.457 12.229 0 13.334 8.172 24.773 19.775 29.578l128.211 53.109-17.488 42.219c-6.441 15.547 1.477 33.93 18.113 42.059l670.216 326.488-6.441 15.551c-1.561 3.768-2.457 7.902-2.457 12.232 0 13.33 8.17 24.77 19.771 29.576l234.632 97.195c3.768 1.561 7.902 2.457 12.232 2.457 13.332 0 24.77-8.174 29.572-19.777zM640.044 303.998c26.473 0.041 47.959 21.527 47.998 48 0 26.492-21.506 48-47.998 48-26.49 0-48-21.508-48-48 0-26.49 21.51-48 48-48zM750.292 443.494l190.236 65.645-84.912 205.008-613.322-298.774 53.328-128.76 200.83 69.295c1.633 77.568 65.066 140.186 143.021 140.186 44.66 0 84.568-20.502 110.818-52.6zM1048.004 500.522l116.375 48.207-122.451 295.644-116.379-48.211z" />
<glyph unicode="&#xe03f;" glyph-name="temperature-down" data-tags="temperature-down" d="M320 314.18c37.285-13.182 63.971-48.762 63.971-90.539 0-52.984-43.016-96-96-96s-96 43.016-96 96c0 41.777 26.744 77.357 64.029 90.539v37.82c0 17.662 14.338 32 32 32s32-14.338 32-32v-37.82zM512 736v-333c39.381-49.18 64-111 64-179 0-158.951-129.049-288-288-288s-288 129.049-288 288c0 68 24.619 129.82 64 179v333c0 123.629 100.371 224 224 224s224-100.371 224-224zM288 32c105.896 0.154 191.846 86.104 192 192 0 54-23.381 94.6-43 119.18l-21 26.221v366.6c0 70.645-57.355 128-128 128s-128-57.355-128-128v-366.82l-21-26.18c-19.619-24.4-43-65-43-119 0.154-105.896 86.104-191.846 192-192zM968 192c13.246 0 24-10.754 24-24-0.32-6.254-2.742-11.992-6.561-16.461l-136-144c-4.588-4.363-10.707-7.162-17.439-7.539-6.744 0.348-12.867 3.154-17.439 7.539l-136 144c-3.818 4.469-6.24 10.207-6.561 16.461 0 13.246 10.754 24 24 24h88v672c0 17.662 14.338 32 32 32h32c17.662 0 32-14.338 32-32v-672h88z" />
<glyph unicode="&#xe040;" glyph-name="temperature-up" data-tags="temperature-up" d="M320 314.18c37.285-13.182 63.971-48.762 63.971-90.539 0-52.984-43.016-96-96-96s-96 43.016-96 96c0 41.777 26.744 77.357 64.029 90.539v421.82c0 17.662 14.338 32 32 32s32-14.338 32-32v-421.82zM512 736v-333c39.381-49.18 64-111 64-179 0-158.951-129.049-288-288-288s-288 129.049-288 288c0 68 24.619 129.82 64 179v333c0 123.629 100.371 224 224 224s224-100.371 224-224zM288 32c105.896 0.154 191.846 86.104 192 192 0 54-23.381 94.6-43 119.18l-21 26.221v366.6c0 70.645-57.355 128-128 128s-128-57.355-128-128v-366.82l-21-26.18c-19.619-24.4-43-65-43-119 0.154-105.896 86.104-191.846 192-192zM985.44 744.46c3.818-4.469 6.24-10.207 6.561-16.461 0-13.246-10.754-24-24-24h-88v-672c0-17.662-14.338-32-32-32h-32c-17.662 0-32 14.338-32 32v672h-88c-13.246 0-24 10.754-24 24 0.32 6.254 2.742 11.992 6.561 16.461l136 144c4.588 4.363 10.707 7.162 17.439 7.539 6.744-0.348 12.867-3.154 17.439-7.539z" />
<glyph unicode="&#xe041;" glyph-name="trailer" data-tags="trailer" horiz-adv-x="1280" d="M352 320c88.307 0 160-71.693 160-160s-71.693-160-160-160-160 71.693-160 160 71.693 160 160 160zM352 96c35.322 0 64 28.678 64 64s-28.678 64-64 64-64-28.678-64-64 28.678-64 64-64zM1248 288c17.662 0 32-14.338 32-32v-32c0-17.662-14.338-32-32-32h-649.16c-15.18 0-27.279 10.881-31.279 25.561-25.381 95.719-111.84 166.439-215.56 166.439s-190.18-70.721-215.56-166.439c-3.9-14.68-16.1-25.561-31.279-25.561h-73.16c-17.662 0-32 14.338-32 32v544c0 35.322 28.678 64 64 64h960c35.322 0 64-28.678 64-64v-480h160zM992 288v448h-896v-386.54c29.395 40.176 67.424 72.791 112 95.738v194.801c0 17.662 14.338 32 32 32h32c17.662 0 32-14.338 32-32v-164.039c16.139 2.664 32.125 4.051 49.012 4.051 15.98 0 31.674-1.24 46.988-3.631v163.619c0 17.662 14.338 32 32 32h32c17.662 0 32-14.338 32-32v-195.4c36.938-19.072 69.266-44.812 96-76.18v271.58c0 17.662 14.338 32 32 32h32c17.662 0 32-14.338 32-32v-352h96v352c0 17.662 14.338 32 32 32h32c17.662 0 32-14.338 32-32v-352h112z" />
<glyph unicode="&#xe042;" glyph-name="transporter" data-tags="transporter" d="M511.916 768c-52.984 0-96 43.016-96 96s43.016 96 96 96l0.039-0.004 0.039 0.004c52.984 0 96-43.016 96-96s-43.016-96-96-96l-0.039 0.004zM127.984 768l59.572-24.84c2.623-1.314 4.426-4.018 4.426-7.15 0-3.131-1.803-5.844-4.426-7.158l-59.572-24.84-24.842-59.57c-1.307-2.631-4.014-4.441-7.148-4.441-3.137 0-5.852 1.811-7.16 4.441l-24.84 59.57-59.572 24.84c-2.625 1.313-4.43 4.018-4.43 7.15s1.805 5.846 4.43 7.158l59.572 24.84 24.84 59.57c1.307 2.633 4.014 4.445 7.15 4.445s5.854-1.813 7.158-4.445zM768.002 32c35.32 0 64-28.678 64-64v-32h-640.016v32c0 35.322 28.68 64 64 64h127.996v505.54l-106.252-135.195c-8.793-11.176-22.4-18.287-37.711-18.287-26.496 0-48.006 21.51-48.006 48.006 0 11.16 3.816 21.438 10.215 29.594l156.816 199.531c20.385 26.104 52.096 42.812 87.75 42.812h130.068c0.084 0 0.117 0.084 0.201 0.084 35.652 0 67.422-16.75 87.863-42.803l156.816-199.625c6.398-8.156 10.254-18.504 10.254-29.666 0-26.494-21.51-48.006-48.006-48.006-15.311 0-28.957 7.184-37.75 18.359l-106.252 135.25v-505.594h128.012zM527.994 32v288h-32v-288h32zM1019.578 871.136c2.625-1.313 4.43-4.018 4.43-7.15s-1.805-5.846-4.43-7.158l-59.568-24.84-24.84-59.57c-1.309-2.631-4.016-4.441-7.152-4.441s-5.852 1.811-7.16 4.441l-24.842 59.57-59.568 24.84c-2.625 1.313-4.43 4.018-4.43 7.15 0 3.131 1.805 5.846 4.43 7.158l59.568 24.84 24.842 59.57c1.307 2.633 4.014 4.445 7.15 4.445s5.855-1.813 7.162-4.445l24.84-59.57z" />
<glyph unicode="&#xe043;" glyph-name="transporter-1" data-tags="transporter-1" d="M383.982 128v64h112.012v-64h-112.012zM527.994 128v64h111.996v-64h-111.996zM239.916 384c-26.475 0.008-47.947 21.539-47.947 48.016 0 11.184 3.834 21.479 10.26 29.641l156.816 199.531c20.385 26.104 52.096 42.812 87.75 42.812h130.068c0.084 0 0.117 0.084 0.201 0.084 35.652 0 67.422-16.75 87.863-42.803l156.816-199.625c6.398-8.156 10.254-18.504 10.254-29.666 0-26.494-21.51-48.006-48.006-48.006-15.311 0-28.957 7.184-37.75 18.359l-106.252 135.25v-281.594h-111.996v64h-32v-64h-112.012v281.54l-106.252-135.195c-8.783-11.188-22.408-18.344-37.723-18.344h-0.092zM511.916 768c-52.984 0-96 43.016-96 96s43.016 96 96 96l0.039-0.004 0.039 0.004c52.984 0 96-43.016 96-96s-43.016-96-96-96l-0.039 0.004zM768.002 32c35.32 0 64-28.678 64-64v-32h-640.016v32c0 35.322 28.68 64 64 64h127.996v32h112.012v-32h32v32h111.996v-32h128.012zM1019.578 231.16c2.625-1.313 4.43-4.018 4.43-7.15s-1.805-5.846-4.43-7.158l-59.568-24.84-24.84-59.57c-1.309-2.631-4.016-4.441-7.152-4.441s-5.852 1.811-7.16 4.441l-24.842 59.57-59.568 24.84c-2.625 1.313-4.43 4.018-4.43 7.15s1.805 5.846 4.43 7.158l59.568 24.84 24.842 59.57c1.307 2.633 4.014 4.445 7.15 4.445s5.855-1.813 7.162-4.445l24.84-59.57zM127.984 703.996l59.572-24.84c2.623-1.314 4.426-4.020 4.426-7.152s-1.803-5.846-4.426-7.16l-59.572-24.84-24.842-59.566c-1.305-2.633-4.012-4.445-7.148-4.445s-5.854 1.812-7.16 4.445l-24.84 59.566-59.572 24.84c-2.625 1.313-4.43 4.020-4.43 7.152s1.805 5.848 4.43 7.16l59.572 24.84 24.84 59.566c1.307 2.633 4.014 4.445 7.15 4.445s5.854-1.813 7.158-4.445z" />
<glyph unicode="&#xe044;" glyph-name="transporter-2" data-tags="transporter-2" d="M528.012 128v64h111.996v-64h-111.996zM640.008 320v-64h-111.996v64h111.996zM640.008 448v-64h-256.008v64h256.008zM746.262 402.344l-35.869 45.656h118.25c1.912-5.146 3.008-10.713 3.008-16.521 0-15.078-7.041-28.525-18.012-37.229-8.158-6.404-18.455-10.281-29.621-10.281-15.316 0-28.967 7.189-37.756 18.375zM511.934 768c-52.984 0-96 43.016-96 96s43.016 96 96 96l0.039-0.004 0.039 0.004c52.984 0 96-43.016 96-96s-43.016-96-96-96l-0.039 0.004zM384 537.54l-20.070-25.539h-122.117l117.25 149.188c20.385 26.104 52.094 42.812 87.748 42.812h130.070c0.084 0 0.117 0.084 0.201 0.084 35.652 0 67.422-16.75 87.863-42.803l117.27-149.281h-122.102l-20.105 25.594v-25.594h-256.008v25.539zM496.012 320v-64h-112.012v64h112.012zM239.934 384c-0.066 0-0.111 0.020-0.176 0.020-26.152 0-47.385 21.232-47.385 47.385 0 5.838 1.059 11.43 2.992 16.596h118.266l-35.885-45.656c-8.783-11.188-22.408-18.344-37.721-18.344h-0.092zM384 128v64h112.012v-64h-112.012zM768.020 32c35.322 0 64.002-28.678 64.002-64v-32h-640.020v32c0 35.322 28.68 64 64.002 64h127.996v32h112.012v-32h32v32h111.996v-32h128.012zM1019.582 679.168c2.623-1.314 4.426-4.020 4.426-7.152s-1.803-5.846-4.426-7.16l-59.572-24.84-24.84-59.566c-1.307-2.633-4.014-4.445-7.15-4.445s-5.854 1.813-7.16 4.445l-24.84 59.566-59.572 24.84c-2.625 1.313-4.43 4.020-4.43 7.152s1.805 5.848 4.43 7.16l59.572 24.84 24.84 59.566c1.307 2.633 4.014 4.445 7.15 4.445s5.854-1.813 7.16-4.445l24.84-59.566zM127.98 895.996l59.572-24.84c2.625-1.313 4.43-4.018 4.43-7.15 0-3.131-1.805-5.846-4.43-7.158l-59.572-24.84-24.84-59.57c-1.307-2.633-4.014-4.445-7.15-4.445s-5.854 1.813-7.16 4.445l-24.84 59.57-59.572 24.84c-2.623 1.314-4.426 4.018-4.426 7.15 0 3.131 1.803 5.844 4.426 7.158l59.572 24.84 24.84 59.566c1.307 2.633 4.014 4.445 7.15 4.445s5.854-1.813 7.16-4.445z" />
<glyph unicode="&#xe045;" glyph-name="transporter-3" data-tags="transporter-3" d="M1019.582 871.136c2.623-1.314 4.426-4.018 4.426-7.15s-1.803-5.844-4.426-7.158l-59.572-24.84-24.84-59.57c-1.309-2.631-4.016-4.441-7.15-4.441s-5.852 1.811-7.16 4.441l-24.84 59.57-59.572 24.84c-2.625 1.313-4.43 4.018-4.43 7.15 0 3.131 1.805 5.846 4.43 7.158l59.572 24.84 24.84 59.57c1.307 2.633 4.014 4.445 7.15 4.445s5.854-1.813 7.16-4.445l24.84-59.57zM127.98 255.992l59.572-24.84c2.625-1.313 4.43-4.020 4.43-7.152s-1.805-5.848-4.43-7.16l-59.572-24.84-24.84-59.566c-1.307-2.633-4.014-4.445-7.15-4.445s-5.854 1.813-7.16 4.445l-24.84 59.566-59.572 24.84c-2.623 1.314-4.426 4.020-4.426 7.152 0 3.131 1.803 5.846 4.426 7.16l59.572 24.84 24.84 59.566c1.307 2.633 4.014 4.445 7.15 4.445s5.854-1.813 7.16-4.445zM746.246 402.344l-35.869 45.656h118.25c1.912-5.146 3.008-10.713 3.008-16.521 0-15.078-7.041-28.525-18.012-37.229-8.158-6.404-18.455-10.281-29.621-10.281-15.316 0-28.967 7.189-37.756 18.375zM639.992 320v-64h-111.996v64h111.996zM383.984 537.54l-20.070-25.539h-122.117l50.299 64h439.828l50.275-64h-122.102l-20.105 25.594v-25.594h-256.008v25.539zM511.996 960c41.607-0.148 76.986-26.822 90.1-64h-180.277c13.113 37.178 48.492 63.852 90.1 64l0.039-0.004zM511.918 768c-41.635 0.094-77.041 26.791-90.119 64h180.316c-13.078-37.209-48.484-63.906-90.119-64l-0.039 0.004zM664.93 661.282l16.721-21.281h-339.258l16.654 21.188c20.385 26.104 52.094 42.812 87.748 42.812h130.070c0.084 0 0.117 0.084 0.201 0.084 35.652 0 67.422-16.75 87.863-42.803zM527.996 128v64h111.996v-64h-111.996zM768.004 32c35.322 0 64.002-28.678 64.002-64v-32h-640.020v32c0 35.322 28.68 64 64.002 64h127.996v32h112.012v-32h32v32h111.996v-32h128.012zM383.984 128v64h112.012v-64h-112.012zM239.918 384c-0.066 0-0.111 0.020-0.176 0.020-26.152 0-47.385 21.232-47.385 47.385 0 5.838 1.059 11.43 2.992 16.596h118.266l-35.885-45.656c-8.783-11.188-22.408-18.344-37.721-18.344h-0.092zM495.996 320v-64h-112.012v64h112.012zM639.992 448v-64h-256.008v64h256.008z" />
<glyph unicode="&#xe046;" glyph-name="transporter-empty" data-tags="transporter-empty" d="M1019.582 423.162c2.623-1.314 4.426-4.018 4.426-7.15s-1.803-5.844-4.426-7.158l-59.572-24.84-24.84-59.57c-1.309-2.631-4.016-4.441-7.15-4.441s-5.852 1.811-7.16 4.441l-24.84 59.57-59.572 24.84c-2.625 1.313-4.43 4.018-4.43 7.15s1.805 5.846 4.43 7.158l59.572 24.84 24.84 59.57c1.307 2.633 4.014 4.445 7.15 4.445s5.854-1.813 7.16-4.445l24.84-59.57zM127.98 895.996l59.572-24.84c2.625-1.314 4.43-4.020 4.43-7.152s-1.805-5.848-4.43-7.16l-59.572-24.84-24.84-59.566c-1.307-2.635-4.014-4.445-7.15-4.445s-5.854 1.811-7.16 4.445l-24.84 59.566-59.572 24.84c-2.623 1.314-4.426 4.020-4.426 7.15 0 3.133 1.803 5.848 4.426 7.162l59.572 24.84 24.84 59.566c1.307 2.633 4.014 4.445 7.15 4.445s5.854-1.813 7.16-4.445zM768.020 32c35.322 0 64.002-28.678 64.002-64v-32h-640.020v32c0 35.322 28.68 64 64.002 64h512.016z" />
<glyph unicode="&#xe047;" glyph-name="ufo" data-tags="ufo" horiz-adv-x="1280" d="M256 368c26.492 0 48-21.508 48-48s-21.508-48-48-48-48 21.508-48 48 21.508 48 48 48zM640 288c26.492 0 48-21.508 48-48s-21.508-48-48-48-48 21.508-48 48 21.508 48 48 48zM966.954 539.782c187.234-44.668 313.046-126.242 313.046-219.782 0-141.383-286.536-256-640-256-353.46 0-640 114.617-640 256 0 93.539 125.82 175.117 313.050 219.786 18.543 163.914 157.195 292.214 326.95 292.214 169.758 0 308.414-128.301 326.954-292.218zM640 736c-129.605 0-234.664-104.191-234.664-232.726 0-10.449 1.754-20.426 3.098-30.512 69.145-36.064 148.756-56.459 232.076-56.459 83.318 0 161.912 20.395 231.056 56.459 1.348 10.086 3.102 20.062 3.102 30.512 0 128.535-105.062 232.726-234.668 232.726zM640 160c356.958 0 544 118.883 544 160 0 26.102-75.629 83.453-221.964 121.926-7.848-23.506-24.463-42.887-46.090-54.293-82.396-42.971-177.266-67.271-276.55-67.271-99.287 0-192.943 24.301-275.34 67.271-21.625 11.408-38.238 30.787-46.086 54.293-146.34-38.473-221.968-95.824-221.968-121.926 0-41.117 187.047-160 544-160zM1024 368c26.492 0 48-21.508 48-48s-21.508-48-48-48-48 21.508-48 48 21.508 48 48 48z" />
<glyph unicode="&#xe048;" glyph-name="ufo-beam" data-tags="ufo-beam" horiz-adv-x="1280" d="M640 496c26.492 0 48-21.51 48-48 0-26.492-21.508-48-48-48s-48 21.508-48 48c0 26.49 21.508 48 48 48zM288 560c26.492 0 48-21.51 48-48 0-26.492-21.508-48-48-48s-48 21.508-48 48c0 26.49 21.508 48 48 48zM932.734 741.77c196.781-37.508 347.266-114.895 347.266-229.77 0-168.064-321.938-256.002-640-256.002s-640 87.938-640 256.002c0 114.875 150.484 192.262 347.266 229.77 38.176 126.344 155.832 218.23 292.734 218.23s254.558-91.887 292.734-218.23zM640 864c-0.139 0-0.275-0.191-0.412-0.191-110.479 0-201.126-85.566-209.236-193.984 62.574-18.98 133.867-29.824 209.648-29.824s147.074 10.844 209.648 29.824c-8.109 108.418-98.756 194.176-209.234 194.176h-0.414zM640 351.998c332.062 0 544 94.75 544 160.002 0 42.32-89.57 96.902-242.816 130.141-9.123-30.619-33.152-54.822-63.668-64.184-74.285-22.531-154.195-33.957-237.516-33.957s-163.23 11.426-237.516 33.957c-30.516 9.361-54.545 33.564-63.668 64.184-153.246-33.238-242.816-87.82-242.816-130.141 0-65.252 211.938-160.002 544-160.002zM67.363-3.369l129.133 258.27c29.77-9.988 61.34-18.656 94.242-26.203l-137.5-275.004c-5.254-10.5-16.123-17.668-28.654-17.668-5.131 0-9.98 1.211-14.279 3.359l-28.633 14.316c-10.502 5.25-17.67 16.119-17.67 28.648 0 5.131 1.211 9.982 3.361 14.281zM1083.484 254.893l129.129-258.262c2.15-4.299 3.41-9.162 3.41-14.293 0-12.529-7.219-23.387-17.719-28.637l-28.633-14.316c-4.299-2.15-9.162-3.408-14.293-3.408-12.529 0-23.389 7.217-28.641 17.717l-137.496 274.996c32.902 7.551 64.473 16.219 94.242 26.203zM992 560c26.492 0 48-21.51 48-48 0-26.492-21.508-48-48-48s-48 21.508-48 48c0 26.49 21.508 48 48 48z" />
<glyph unicode="&#xe04a;" glyph-name="user-alien" data-tags="user-alien" horiz-adv-x="896" d="M504 416c-13.246 0-24 10.754-24 24v16c0 66.23 53.77 120 120 120h48c13.246 0 24-10.754 24-24v-16c0-66.23-53.77-120-120-120h-48zM392 416h-48c-66.23 0-120 53.77-120 120v16c0 13.246 10.754 24 24 24h48c66.23 0 120-53.77 120-120v-16c0-13.246-10.754-24-24-24zM704 256c105.967 0 192-86.033 192-192v-64c0-35.322-28.678-64-64-64h-768c-35.322 0.002-63.998 28.678-64 64v64c0 105.967 86.033 192 192 192h17.629c-78.297 87.555-145.758 193.316-145.758 298.734 0 251.792 171.969 405.266 384.128 405.266 212.106 0 384.132-153.473 384.132-405.266 0-105.418-67.461-211.18-145.758-298.734h17.625zM159.871 554.734c0-122.742 145.922-278.386 288.128-387.876 142.207 109.488 288.132 265.132 288.132 387.876 0 184.98-115.793 309.266-288.132 309.266s-288.128-124.285-288.128-309.266zM800 32v32c-0.061 52.955-43.045 95.939-96 96h-114.113c-38.703-34.555-74.543-62.84-100.48-82.223-11.533-8.631-25.963-13.744-41.463-13.744-15.498 0-29.812 5.113-41.346 13.744-25.938 19.383-61.781 47.668-100.484 82.223h-114.113c-52.955-0.061-95.939-43.045-96-96v-32h704z" />
<glyph unicode="&#xe04b;" glyph-name="user-robot" data-tags="user-robot" horiz-adv-x="896" d="M544 544c-35.32 0-64 28.68-64 64 0 35.322 28.678 64 64 64s64-28.678 64-64-28.678-64-64-64zM416 416v64h64v-64h-64zM544 416v64h64v-64h-64zM750.976 345.528c83.195-21.047 145.023-95.789 145.023-185.527v-96c0-70.645-57.355-128-128-128h-640c-70.645 0-128 57.355-128 128v96c0 89.738 61.828 164.48 145.023 185.527-10.693 21.154-16.871 45.203-17.023 70.473v32h-60.041c-19.846 0-35.959 16.111-35.959 35.959v120.084c0 19.846 16.111 35.957 35.955 35.957h60.045v32c0 88.305 71.695 160 160 160h112v80c0 26.492 21.508 48 48 48s48-21.508 48-48v-80h112c88.305 0 160-71.695 160-160v-32h60.043c19.846 0 35.957-16.111 35.957-35.957v-120.084c0-19.846-16.111-35.959-35.959-35.959h-60.041v-32c-0.152-25.27-6.33-49.318-17.023-70.473zM224 672v-256c0.041-35.305 28.695-63.959 64-64h320c35.305 0.041 63.959 28.695 64 64v256c-0.041 35.305-28.695 63.959-64 64h-320c-35.305-0.041-63.959-28.695-64-64zM416 32v64c0 17.662-14.338 32-32 32s-32-14.338-32-32v-64h64zM544 64c17.66 0 32 14.34 32 32 0 17.662-14.338 32-32 32s-32-14.338-32-32 14.338-32 32-32zM800 64v96c-0.061 52.955-43.045 95.939-96 96h-512c-52.955-0.061-95.939-43.045-96-96v-96c0.020-17.652 14.348-31.98 32-32h128v96c0 35.322 28.678 64 64 64h256c35.322 0 64-28.678 64-64v-96h128c17.652 0.020 31.98 14.348 32 32zM352 544c-35.32 0-64 28.68-64 64 0 35.322 28.678 64 64 64s64-28.678 64-64-28.678-64-64-64zM352 480v-64h-64v64h64z" />
<glyph unicode="&#xe04c;" glyph-name="user-visor" data-tags="user-visor" horiz-adv-x="896" d="M627.188 352c148.35-0.027 268.786-120.463 268.812-268.812v-51.188c-0.014-52.977-43.023-95.986-96-96h-704c-52.977 0.014-95.986 43.023-96 96v51.188c0.027 148.35 120.463 268.786 268.812 268.812 57.562 0 85-32 179.188-32s121.812 32 179.188 32zM800 32v51.188c-0.168 95.299-77.514 172.645-172.812 172.812-29.375 0-75.812-32-179.188-32-102.625 0-150 32-179.188 32-95.299-0.168-172.645-77.514-172.812-172.812v-51.188h704zM644.882 234.672c2.266-0.121 4.287-1.182 5.668-2.805 33.391-43.723 51.391-97.727 53.445-160.531 0.002-0.074 0.004-0.143 0.004-0.217 0-3.133-2.023-5.799-4.836-6.756-0.713-0.234-1.477-0.363-2.27-0.363h-0.012c-0.008 0-0.010-0.006-0.016-0.006-2.385 0-4.492 1.189-5.762 3.006-20.777 29.25-30.668 40.363-35.332 44.504-0.842-0.137-1.672-0.365-2.445-0.668-5.836-1.777-21.668-9.75-65.836-44.113-1.205-0.941-2.729-1.514-4.377-1.514-3.924 0-7.109 3.186-7.109 7.111 0 0.258 0.014 0.514 0.041 0.766 6.891 64.723 28.223 118.254 63.445 159.113 1.295 1.516 3.219 2.473 5.365 2.473h0.025zM176.676 579.094c-27.73 7.020-48.676 30.996-48.676 60.906v128c0 35.322 28.678 64 64 64h16.633c51.623 77.32 139.334 128.291 239.196 128.291s187.916-50.971 239.54-128.291h16.633c35.322 0 64-28.678 64-64v-128c0-29.91-20.945-53.887-48.676-60.906-38.801-113.195-144.973-195.094-271.324-195.094s-232.524 81.898-271.324 195.094zM448 480c70.746 0 131.98 38.891 165.289 96h-330.578c33.309-57.109 94.543-96 165.289-96zM448 864c-39.016-0.002-75.504-11.859-105.734-32h211.468c-30.23 20.141-66.719 31.998-105.734 32zM224 736v-64h448v64h-448z" />
<glyph unicode="&#xe04d;" glyph-name="vacuum" data-tags="vacuum" horiz-adv-x="1280" d="M1280 720c0-87.5-47.801-162.699-118-204.2 34.137-57.143 54-124.346 54-195.689v-256.111c0-70.645-57.355-128-128-128h-131.561c26.52 26.277 46.416 59.207 57.16 96h74.4c17.662 0 32 14.338 32 32v256c0 158.801-129.199 288-288 288h-32v-288c-34.318-0.172-67.033-8.279-96-22.381v342.38c0 35.322 28.678 64 64 64h64c0.18 0 0.398 0.057 0.578 0.057 105.838 0 201.698-43.059 271.002-112.596 47.672 23.369 80.398 72.307 80.398 128.939 0 79.256-64.346 143.6-143.6 143.6h-421.199c-68.949-0.299-126.586-49.020-140.74-113.82l-119.619-558.18h89.18c35.322 0 64-28.678 64-64v-128c0-35.322-28.678-64-64-64h-416c-17.662 0-32 14.338-32 32v32c0 105.967 86.033 192 192 192h68.619l123.941 578.28c23.439 109.9 122.199 189.721 234.62 189.721h420.82c132.389-0.154 239.846-107.611 240-240zM416 96h-224c-41.756-0.057-77.287-26.744-90.52-64h314.52v64zM800 256c88.307 0 160-71.693 160-160s-71.693-160-160-160-160 71.693-160 160 71.693 160 160 160zM800 64c17.662 0 32 14.338 32 32s-14.338 32-32 32-32-14.338-32-32 14.338-32 32-32z" />
<glyph unicode="&#xe04e;" glyph-name="vacuum-robot" data-tags="vacuum-robot" d="M862.72 798.72c193.699-193.701 193.699-507.74 0-701.442-89.781-89.777-213.918-145.338-350.79-145.338s-260.872 55.561-350.652 145.338c-193.699 193.701-193.699 507.74 0 701.442 89.781 89.777 213.918 145.338 350.79 145.338 136.873 0 260.872-55.561 350.652-145.338zM794.84 165.16c73.139 72.5 118.354 173.127 118.354 284.142 0 220.768-179.234 400-400 400-111.018 0-211.534-45.324-284.034-118.463-73.139-72.5-118.354-173.127-118.354-284.142 0-220.768 179.234-400 400-400 111.018 0 211.534 45.324 284.034 118.463zM738 674c57.895-57.832 93.729-137.83 93.729-226.042 0-88.215-35.834-168.125-93.729-225.958-8.703-8.703-20.738-14.076-34.006-14.076-26.539 0-48.084 21.545-48.084 48.082 0 13.27 5.387 25.291 14.090 33.994 43.209 40.77 70.133 98.617 70.133 162.656 0 123.375-100.166 223.54-223.542 223.54-64.037 0-121.822-26.986-162.592-70.195-8.703-8.703-20.738-14.076-34.006-14.076-26.539 0-48.084 21.545-48.084 48.082 0 13.27 5.387 25.291 14.090 33.994 124.68 124.5 327.32 124.5 452 0zM279.1 350.86l135.76-135.76c5.793-5.793 9.369-13.803 9.369-22.635 0-17.662-14.34-32.004-32.004-32.004-8.83 0-16.832 3.586-22.625 9.379l-135.76 135.76c-5.793 5.793-9.369 13.803-9.369 22.635 0 17.664 14.34 32.004 32.004 32.004 8.832 0 16.832-3.586 22.625-9.379zM460.12 531.88l135.762-135.762c5.793-5.793 9.369-13.803 9.369-22.633 0-17.664-14.342-32.004-32.004-32.004-8.832 0-16.834 3.584-22.627 9.377l-135.76 135.76c-5.793 5.793-9.369 13.803-9.369 22.635 0 17.664 14.342 32.004 32.004 32.004 8.832 0 16.832-3.584 22.625-9.377zM324.36 486.62l226.26-226.26c5.602-5.764 9.043-13.637 9.043-22.301 0-17.662-14.338-32-32-32-8.658 0-16.52 3.447-22.281 9.041l-226.282 226.282c-5.594 5.762-9.031 13.631-9.031 22.291 0 17.66 14.338 32 32 32 8.662 0 16.527-3.451 22.291-9.053z" />
<glyph unicode="&#xe04f;" glyph-name="window-frame" data-tags="window-frame" d="M992 32c17.662 0 32-14.338 32-32v-32c0-17.662-14.338-32-32-32h-960c-17.662 0-32 14.338-32 32v32c0 17.662 14.338 32 32 32h32v864c0 35.322 28.678 64 64 64h768c35.322 0 64-28.678 64-64v-864h32zM464 32v384h-304v-384h304zM464 512v352h-304v-352h304zM864 32v384h-304v-384h304zM864 512v352h-304v-352h304z" />
</font>
</defs>
</svg>
