<?xml version="1.0" encoding="UTF-8"?>
<svg xmlns="http://www.w3.org/2000/svg" version="1.1" width="100" height="100" viewBox="0 0 100 100"><rect x="0" y="0" width="100" height="100" fill="#ffffff"/><g transform="scale(3.448)"><g transform="translate(0,0)"><path fill-rule="evenodd" d="M9 0L9 1L8 1L8 3L9 3L9 4L8 4L8 8L6 8L6 9L7 9L7 10L5 10L5 9L4 9L4 8L3 8L3 9L2 9L2 8L0 8L0 10L3 10L3 12L2 12L2 11L0 11L0 12L2 12L2 13L0 13L0 16L3 16L3 19L2 19L2 21L3 21L3 20L4 20L4 18L5 18L5 19L7 19L7 18L8 18L8 19L11 19L11 20L10 20L10 23L9 23L9 20L8 20L8 23L9 23L9 25L8 25L8 26L9 26L9 27L8 27L8 29L11 29L11 28L12 28L12 29L14 29L14 28L12 28L12 24L14 24L14 25L13 25L13 27L15 27L15 29L19 29L19 28L20 28L20 29L21 29L21 27L22 27L22 26L23 26L23 27L24 27L24 29L26 29L26 28L25 28L25 21L28 21L28 22L29 22L29 20L28 20L28 19L29 19L29 17L28 17L28 15L29 15L29 14L28 14L28 13L29 13L29 11L28 11L28 10L29 10L29 9L28 9L28 8L26 8L26 9L25 9L25 8L22 8L22 10L19 10L19 8L18 8L18 7L19 7L19 6L20 6L20 8L21 8L21 6L20 6L20 5L21 5L21 4L20 4L20 3L21 3L21 0L19 0L19 1L20 1L20 3L19 3L19 2L18 2L18 1L17 1L17 0L15 0L15 1L14 1L14 2L16 2L16 1L17 1L17 3L15 3L15 6L14 6L14 4L13 4L13 6L12 6L12 5L11 5L11 6L10 6L10 5L9 5L9 4L12 4L12 3L13 3L13 0L12 0L12 1L11 1L11 2L9 2L9 1L10 1L10 0ZM17 3L17 4L16 4L16 6L15 6L15 7L14 7L14 6L13 6L13 8L12 8L12 6L11 6L11 7L10 7L10 6L9 6L9 7L10 7L10 8L8 8L8 10L7 10L7 11L6 11L6 12L8 12L8 10L10 10L10 8L11 8L11 9L12 9L12 10L11 10L11 11L9 11L9 14L10 14L10 15L11 15L11 16L12 16L12 17L10 17L10 16L9 16L9 15L8 15L8 18L11 18L11 19L12 19L12 20L14 20L14 19L15 19L15 21L14 21L14 22L13 22L13 23L14 23L14 22L15 22L15 23L17 23L17 24L15 24L15 25L14 25L14 26L15 26L15 27L16 27L16 28L17 28L17 27L18 27L18 28L19 28L19 27L21 27L21 25L20 25L20 22L19 22L19 23L17 23L17 22L16 22L16 17L17 17L17 19L18 19L18 17L17 17L17 16L15 16L15 17L14 17L14 16L12 16L12 14L10 14L10 13L12 13L12 12L13 12L13 8L15 8L15 9L14 9L14 10L15 10L15 11L14 11L14 12L15 12L15 14L13 14L13 15L16 15L16 13L17 13L17 12L18 12L18 14L17 14L17 15L18 15L18 14L19 14L19 15L20 15L20 14L21 14L21 12L19 12L19 11L18 11L18 8L17 8L17 7L18 7L18 6L19 6L19 5L20 5L20 4L19 4L19 5L18 5L18 3ZM17 5L17 6L16 6L16 7L15 7L15 8L16 8L16 7L17 7L17 6L18 6L18 5ZM3 9L3 10L4 10L4 11L5 11L5 10L4 10L4 9ZM24 9L24 10L22 10L22 12L24 12L24 15L23 15L23 16L21 16L21 17L19 17L19 19L20 19L20 20L19 20L19 21L20 21L20 20L27 20L27 19L25 19L25 16L26 16L26 17L27 17L27 13L28 13L28 12L26 12L26 14L25 14L25 11L26 11L26 10L27 10L27 9L26 9L26 10L25 10L25 9ZM15 11L15 12L16 12L16 11ZM3 12L3 13L2 13L2 14L1 14L1 15L3 15L3 14L8 14L8 13L4 13L4 12ZM19 13L19 14L20 14L20 13ZM22 13L22 14L23 14L23 13ZM5 15L5 16L4 16L4 17L5 17L5 18L7 18L7 17L6 17L6 16L7 16L7 15ZM23 16L23 17L22 17L22 18L21 18L21 19L24 19L24 18L23 18L23 17L24 17L24 16ZM1 17L1 18L0 18L0 19L1 19L1 18L2 18L2 17ZM13 17L13 19L14 19L14 17ZM0 20L0 21L1 21L1 20ZM5 20L5 21L7 21L7 20ZM17 20L17 21L18 21L18 20ZM21 21L21 24L24 24L24 21ZM22 22L22 23L23 23L23 22ZM26 22L26 24L29 24L29 23L27 23L27 22ZM17 24L17 25L16 25L16 26L18 26L18 27L19 27L19 26L20 26L20 25L19 25L19 24ZM9 25L9 26L10 26L10 25ZM23 25L23 26L24 26L24 25ZM27 25L27 26L26 26L26 27L27 27L27 29L28 29L28 27L29 27L29 26L28 26L28 25ZM27 26L27 27L28 27L28 26ZM22 28L22 29L23 29L23 28ZM0 0L0 7L7 7L7 0ZM1 1L1 6L6 6L6 1ZM2 2L2 5L5 5L5 2ZM22 0L22 7L29 7L29 0ZM23 1L23 6L28 6L28 1ZM24 2L24 5L27 5L27 2ZM0 22L0 29L7 29L7 22ZM1 23L1 28L6 28L6 23ZM2 24L2 27L5 27L5 24Z" fill="#000000"/></g></g></svg>
