<?xml version="1.0" encoding="UTF-8"?>
<svg xmlns="http://www.w3.org/2000/svg" version="1.1" width="100" height="100" viewBox="0 0 100 100"><rect x="0" y="0" width="100" height="100" fill="#ffffff"/><g transform="scale(3.448)"><g transform="translate(0,0)"><path fill-rule="evenodd" d="M8 0L8 4L10 4L10 3L11 3L11 4L12 4L12 2L11 2L11 0ZM12 0L12 1L14 1L14 2L15 2L15 1L16 1L16 3L15 3L15 5L14 5L14 3L13 3L13 5L11 5L11 6L10 6L10 7L9 7L9 5L8 5L8 7L9 7L9 8L10 8L10 7L11 7L11 6L12 6L12 8L11 8L11 9L7 9L7 8L4 8L4 10L3 10L3 9L2 9L2 8L0 8L0 9L1 9L1 10L0 10L0 11L1 11L1 12L0 12L0 13L2 13L2 14L1 14L1 16L2 16L2 17L3 17L3 16L4 16L4 18L5 18L5 19L2 19L2 20L0 20L0 21L2 21L2 20L3 20L3 21L8 21L8 22L10 22L10 24L9 24L9 23L8 23L8 25L9 25L9 27L8 27L8 29L9 29L9 28L10 28L10 29L11 29L11 28L12 28L12 29L14 29L14 27L16 27L16 26L17 26L17 28L16 28L16 29L19 29L19 25L20 25L20 26L21 26L21 25L23 25L23 27L22 27L22 29L23 29L23 27L24 27L24 29L26 29L26 27L27 27L27 29L28 29L28 28L29 28L29 24L28 24L28 23L29 23L29 21L28 21L28 19L29 19L29 17L28 17L28 16L29 16L29 13L28 13L28 15L27 15L27 17L26 17L26 15L25 15L25 13L24 13L24 11L26 11L26 10L27 10L27 9L28 9L28 11L27 11L27 12L28 12L28 11L29 11L29 8L25 8L25 9L24 9L24 8L23 8L23 9L21 9L21 6L20 6L20 5L21 5L21 4L20 4L20 5L19 5L19 3L18 3L18 2L20 2L20 3L21 3L21 2L20 2L20 1L21 1L21 0L20 0L20 1L17 1L17 0ZM9 2L9 3L10 3L10 2ZM16 3L16 5L15 5L15 7L16 7L16 8L15 8L15 9L14 9L14 5L13 5L13 8L12 8L12 9L11 9L11 10L8 10L8 11L6 11L6 10L7 10L7 9L5 9L5 10L4 10L4 11L3 11L3 12L2 12L2 13L3 13L3 12L4 12L4 11L6 11L6 12L7 12L7 13L4 13L4 14L2 14L2 16L3 16L3 15L4 15L4 16L5 16L5 17L6 17L6 18L7 18L7 17L8 17L8 16L9 16L9 15L4 15L4 14L7 14L7 13L10 13L10 14L11 14L11 16L10 16L10 17L9 17L9 19L10 19L10 20L9 20L9 21L11 21L11 24L10 24L10 25L11 25L11 26L10 26L10 27L11 27L11 26L12 26L12 25L13 25L13 26L14 26L14 25L13 25L13 24L14 24L14 23L15 23L15 21L16 21L16 24L15 24L15 25L17 25L17 26L18 26L18 25L19 25L19 21L18 21L18 25L17 25L17 21L16 21L16 20L17 20L17 19L18 19L18 20L19 20L19 19L20 19L20 20L25 20L25 22L26 22L26 25L27 25L27 26L28 26L28 24L27 24L27 22L26 22L26 21L27 21L27 19L28 19L28 17L27 17L27 18L26 18L26 19L24 19L24 17L25 17L25 15L22 15L22 13L23 13L23 14L24 14L24 13L23 13L23 12L22 12L22 13L21 13L21 11L22 11L22 10L20 10L20 9L16 9L16 8L17 8L17 7L18 7L18 8L20 8L20 6L19 6L19 5L18 5L18 3ZM17 5L17 6L16 6L16 7L17 7L17 6L18 6L18 7L19 7L19 6L18 6L18 5ZM12 9L12 10L11 10L11 11L10 11L10 13L11 13L11 12L12 12L12 13L13 13L13 15L12 15L12 16L11 16L11 17L12 17L12 18L11 18L11 20L12 20L12 21L13 21L13 20L12 20L12 19L14 19L14 17L15 17L15 19L16 19L16 17L18 17L18 18L19 18L19 17L21 17L21 18L20 18L20 19L21 19L21 18L22 18L22 19L23 19L23 17L24 17L24 16L23 16L23 17L21 17L21 16L22 16L22 15L21 15L21 13L20 13L20 12L18 12L18 11L17 11L17 12L16 12L16 13L15 13L15 12L14 12L14 13L13 13L13 12L12 12L12 11L13 11L13 9ZM15 9L15 11L16 11L16 9ZM23 9L23 10L24 10L24 9ZM14 13L14 15L13 15L13 16L12 16L12 17L14 17L14 16L15 16L15 17L16 17L16 15L17 15L17 13L16 13L16 15L15 15L15 13ZM18 13L18 17L19 17L19 16L20 16L20 13ZM26 13L26 14L27 14L27 13ZM6 16L6 17L7 17L7 16ZM0 17L0 18L1 18L1 17ZM5 19L5 20L8 20L8 19ZM14 20L14 21L15 21L15 20ZM21 21L21 24L24 24L24 21ZM22 22L22 23L23 23L23 22ZM12 23L12 24L11 24L11 25L12 25L12 24L13 24L13 23ZM24 25L24 27L26 27L26 26L25 26L25 25ZM12 27L12 28L13 28L13 27ZM20 27L20 29L21 29L21 27ZM0 0L0 7L7 7L7 0ZM1 1L1 6L6 6L6 1ZM2 2L2 5L5 5L5 2ZM22 0L22 7L29 7L29 0ZM23 1L23 6L28 6L28 1ZM24 2L24 5L27 5L27 2ZM0 22L0 29L7 29L7 22ZM1 23L1 28L6 28L6 23ZM2 24L2 27L5 27L5 24Z" fill="#000000"/></g></g></svg>
