<?xml version="1.0" encoding="UTF-8"?>
<svg xmlns="http://www.w3.org/2000/svg" version="1.1" width="100" height="100" viewBox="0 0 100 100"><rect x="0" y="0" width="100" height="100" fill="#ffffff"/><g transform="scale(3.448)"><g transform="translate(0,0)"><path fill-rule="evenodd" d="M10 0L10 2L11 2L11 0ZM12 0L12 1L13 1L13 2L12 2L12 4L16 4L16 5L15 5L15 6L14 6L14 5L11 5L11 6L10 6L10 4L11 4L11 3L8 3L8 4L9 4L9 5L8 5L8 7L9 7L9 8L6 8L6 9L7 9L7 10L3 10L3 9L5 9L5 8L0 8L0 9L2 9L2 10L1 10L1 11L4 11L4 12L2 12L2 14L3 14L3 15L2 15L2 16L0 16L0 21L1 21L1 17L3 17L3 18L6 18L6 19L7 19L7 20L4 20L4 19L2 19L2 21L7 21L7 20L8 20L8 23L9 23L9 24L8 24L8 29L10 29L10 28L11 28L11 27L10 27L10 24L11 24L11 25L12 25L12 26L13 26L13 27L12 27L12 29L13 29L13 28L14 28L14 29L16 29L16 27L18 27L18 26L14 26L14 25L12 25L12 23L13 23L13 22L11 22L11 21L9 21L9 20L8 20L8 19L10 19L10 20L11 20L11 18L10 18L10 17L12 17L12 18L15 18L15 20L16 20L16 21L19 21L19 20L20 20L20 22L19 22L19 23L18 23L18 22L15 22L15 21L14 21L14 20L13 20L13 19L12 19L12 21L14 21L14 22L15 22L15 23L14 23L14 24L15 24L15 25L19 25L19 26L20 26L20 25L21 25L21 26L22 26L22 27L23 27L23 28L21 28L21 27L20 27L20 28L19 28L19 29L20 29L20 28L21 28L21 29L23 29L23 28L24 28L24 29L25 29L25 28L26 28L26 29L27 29L27 28L28 28L28 26L29 26L29 23L28 23L28 22L29 22L29 21L28 21L28 22L27 22L27 24L26 24L26 21L27 21L27 20L29 20L29 19L27 19L27 20L25 20L25 19L26 19L26 18L25 18L25 17L24 17L24 16L26 16L26 17L27 17L27 18L29 18L29 17L27 17L27 16L28 16L28 15L27 15L27 16L26 16L26 15L21 15L21 14L23 14L23 13L24 13L24 14L26 14L26 13L27 13L27 14L29 14L29 13L28 13L28 12L29 12L29 11L27 11L27 12L25 12L25 11L26 11L26 10L25 10L25 9L26 9L26 8L25 8L25 9L24 9L24 8L23 8L23 9L22 9L22 8L21 8L21 5L20 5L20 4L19 4L19 3L17 3L17 2L18 2L18 1L17 1L17 2L16 2L16 1L15 1L15 0L14 0L14 1L13 1L13 0ZM19 0L19 1L20 1L20 3L21 3L21 1L20 1L20 0ZM8 1L8 2L9 2L9 1ZM14 1L14 2L13 2L13 3L15 3L15 1ZM16 3L16 4L17 4L17 5L16 5L16 6L15 6L15 7L14 7L14 6L13 6L13 7L12 7L12 6L11 6L11 7L12 7L12 9L11 9L11 8L10 8L10 9L8 9L8 10L7 10L7 11L5 11L5 12L4 12L4 14L5 14L5 13L6 13L6 14L7 14L7 13L6 13L6 12L8 12L8 14L13 14L13 15L12 15L12 17L13 17L13 16L14 16L14 17L15 17L15 18L16 18L16 17L17 17L17 16L19 16L19 17L18 17L18 18L17 18L17 19L16 19L16 20L18 20L18 18L19 18L19 19L20 19L20 20L22 20L22 19L23 19L23 18L24 18L24 19L25 19L25 18L24 18L24 17L23 17L23 16L22 16L22 17L21 17L21 16L20 16L20 14L21 14L21 13L23 13L23 12L24 12L24 13L25 13L25 12L24 12L24 11L25 11L25 10L24 10L24 9L23 9L23 10L22 10L22 9L21 9L21 8L20 8L20 5L19 5L19 4L17 4L17 3ZM17 5L17 6L16 6L16 7L15 7L15 9L14 9L14 8L13 8L13 9L12 9L12 10L15 10L15 11L14 11L14 12L13 12L13 11L12 11L12 13L14 13L14 15L17 15L17 14L15 14L15 13L18 13L18 14L20 14L20 13L21 13L21 12L22 12L22 11L21 11L21 12L20 12L20 13L18 13L18 12L17 12L17 11L16 11L16 10L15 10L15 9L18 9L18 10L20 10L20 9L18 9L18 8L17 8L17 6L18 6L18 7L19 7L19 5ZM9 6L9 7L10 7L10 6ZM27 8L27 10L29 10L29 9L28 9L28 8ZM10 9L10 11L11 11L11 9ZM8 11L8 12L9 12L9 13L11 13L11 12L9 12L9 11ZM14 12L14 13L15 13L15 12ZM0 14L0 15L1 15L1 14ZM3 15L3 17L4 17L4 16L5 16L5 17L6 17L6 18L9 18L9 17L10 17L10 16L11 16L11 15L10 15L10 16L8 16L8 17L6 17L6 16L7 16L7 15L6 15L6 16L5 16L5 15ZM15 16L15 17L16 17L16 16ZM19 17L19 18L20 18L20 19L21 19L21 17ZM22 17L22 18L23 18L23 17ZM21 21L21 24L24 24L24 21ZM9 22L9 23L11 23L11 22ZM22 22L22 23L23 23L23 22ZM15 23L15 24L18 24L18 23ZM19 24L19 25L20 25L20 24ZM25 24L25 25L24 25L24 26L23 26L23 25L22 25L22 26L23 26L23 27L24 27L24 28L25 28L25 27L26 27L26 28L27 28L27 27L26 27L26 26L27 26L27 25L26 25L26 24ZM24 26L24 27L25 27L25 26ZM9 27L9 28L10 28L10 27ZM14 27L14 28L15 28L15 27ZM17 28L17 29L18 29L18 28ZM0 0L0 7L7 7L7 0ZM1 1L1 6L6 6L6 1ZM2 2L2 5L5 5L5 2ZM22 0L22 7L29 7L29 0ZM23 1L23 6L28 6L28 1ZM24 2L24 5L27 5L27 2ZM0 22L0 29L7 29L7 22ZM1 23L1 28L6 28L6 23ZM2 24L2 27L5 27L5 24Z" fill="#000000"/></g></g></svg>
