<svg width="25" height="24" viewBox="0 0 25 24" fill="none" xmlns="http://www.w3.org/2000/svg">
<g clip-path="url(#clip0_10_147)">
<path d="M17.3232 2C16.7732 2 16.3232 2.45 16.3232 3V4H8.32324V3C8.32324 2.45 7.87324 2 7.32324 2C6.77324 2 6.32324 2.45 6.32324 3V4H5.32324C4.21324 4 3.33324 4.9 3.33324 6L3.32324 20C3.32324 21.1 4.21324 22 5.32324 22H19.3232C20.4232 22 21.3232 21.1 21.3232 20V6C21.3232 4.9 20.4232 4 19.3232 4H18.3232V3C18.3232 2.45 17.8732 2 17.3232 2ZM19.3232 20H5.32324V10H19.3232V20ZM11.3232 13C11.3232 12.45 11.7732 12 12.3232 12C12.8732 12 13.3232 12.45 13.3232 13C13.3232 13.55 12.8732 14 12.3232 14C11.7732 14 11.3232 13.55 11.3232 13ZM7.32324 13C7.32324 12.45 7.77324 12 8.32324 12C8.87324 12 9.32324 12.45 9.32324 13C9.32324 13.55 8.87324 14 8.32324 14C7.77324 14 7.32324 13.55 7.32324 13ZM15.3232 13C15.3232 12.45 15.7732 12 16.3232 12C16.8732 12 17.3232 12.45 17.3232 13C17.3232 13.55 16.8732 14 16.3232 14C15.7732 14 15.3232 13.55 15.3232 13ZM11.3232 17C11.3232 16.45 11.7732 16 12.3232 16C12.8732 16 13.3232 16.45 13.3232 17C13.3232 17.55 12.8732 18 12.3232 18C11.7732 18 11.3232 17.55 11.3232 17ZM7.32324 17C7.32324 16.45 7.77324 16 8.32324 16C8.87324 16 9.32324 16.45 9.32324 17C9.32324 17.55 8.87324 18 8.32324 18C7.77324 18 7.32324 17.55 7.32324 17ZM15.3232 17C15.3232 16.45 15.7732 16 16.3232 16C16.8732 16 17.3232 16.45 17.3232 17C17.3232 17.55 16.8732 18 16.3232 18C15.7732 18 15.3232 17.55 15.3232 17Z" fill="#757575"/>
</g>
<defs>
<clipPath id="clip0_10_147">
<rect width="24" height="24" fill="white" transform="translate(0.323242)"/>
</clipPath>
</defs>
</svg>
