<svg width="24" height="24" viewBox="0 0 24 24" fill="none" xmlns="http://www.w3.org/2000/svg">
<g clip-path="url(#clip0_10_71884)">
<path fill-rule="evenodd" clip-rule="evenodd" d="M22.4764 3H21.9526V18.7141H23.0002V3.5238C23.0002 3.23451 22.7657 3 22.4764 3ZM12.5236 8.76184C12.5236 10.7869 10.882 12.4285 8.85696 12.4285C6.83194 12.4285 5.19034 10.7869 5.19034 8.76184C5.19034 6.73682 6.83194 5.09521 8.85696 5.09521C10.882 5.09521 12.5236 6.73682 12.5236 8.76184ZM1 20.8093C1 16.7593 4.28321 13.4761 8.33325 13.4761H10.4285C14.4785 13.4761 17.7617 16.7593 17.7617 20.8093H1ZM2.04712 3.5238C2.04712 3.23451 2.28163 3 2.57092 3H21.9516V4.04761H2.04712V3.5238ZM3.09472 4.04761H2.04712V11.3809H3.09472V4.04761Z" fill="white"/>
</g>
<defs>
<clipPath id="clip0_10_71884">
<rect width="24" height="24" fill="white"/>
</clipPath>
</defs>
</svg>
