<?xml version="1.0" encoding="UTF-8"?><svg id="a" xmlns="http://www.w3.org/2000/svg" width="24" height="24" viewBox="0 0 24 24"><path d="M15.35,19.23c-.27,.13-.5,.13-.7,0-.2-.13-.3-.36-.3-.67,0-.13,.04-.27,.13-.4,.08-.13,.19-.23,.32-.3,1.15-.53,2.05-1.34,2.71-2.41,.66-1.08,.99-2.25,.99-3.51,0-.8-.2-1.61-.59-2.44-.39-.83-.9-1.55-1.54-2.19l-.73-.65v2.35c0,.22-.07,.4-.21,.54-.14,.14-.32,.21-.54,.21s-.4-.07-.54-.21c-.14-.14-.21-.32-.21-.54V4.75c0-.22,.07-.4,.21-.54,.14-.14,.32-.21,.54-.21h4.25c.22,0,.4,.07,.54,.21,.14,.14,.21,.32,.21,.54s-.07,.4-.21,.54c-.14,.14-.32,.21-.54,.21h-2.52l.38,.35c1,.93,1.75,1.93,2.25,3,.5,1.07,.75,2.09,.75,3.07,0,1.6-.42,3.05-1.26,4.35-.84,1.3-1.97,2.28-3.39,2.95Zm-10.43,.77c-.22,0-.4-.07-.54-.21-.14-.14-.21-.32-.21-.54s.07-.4,.21-.54,.32-.21,.54-.21h2.5l-.38-.3c-1.07-.85-1.84-1.77-2.32-2.77-.48-1-.72-2.12-.72-3.35,0-1.6,.43-3.05,1.29-4.36,.86-1.31,2-2.29,3.41-2.94,.27-.12,.5-.1,.69,.04,.19,.14,.29,.36,.29,.66,0,.13-.04,.26-.13,.39-.08,.13-.19,.22-.32,.29-1.13,.53-2.04,1.34-2.71,2.41-.68,1.07-1.01,2.25-1.01,3.51,0,1.05,.2,1.96,.59,2.74,.39,.78,.92,1.45,1.59,2.01l.75,.52v-2.35c0-.22,.07-.4,.21-.54,.14-.14,.32-.21,.54-.21s.4,.07,.54,.21c.14,.14,.21,.32,.21,.54v4.25c0,.22-.07,.4-.21,.54s-.32,.21-.54,.21H4.92Z"/></svg>