<svg width="25" height="24" viewBox="0 0 25 24" fill="none" xmlns="http://www.w3.org/2000/svg">
<g clip-path="url(#clip0_10_127)">
<path d="M10.3232 16H14.3232C14.8732 16 15.3232 15.55 15.3232 15V10H16.9132C17.8032 10 18.2532 8.92 17.6232 8.29L13.0332 3.7C12.6432 3.31 12.0132 3.31 11.6232 3.7L7.03324 8.29C6.40324 8.92 6.84324 10 7.73324 10H9.32324V15C9.32324 15.55 9.77324 16 10.3232 16ZM6.32324 18H18.3232C18.8732 18 19.3232 18.45 19.3232 19C19.3232 19.55 18.8732 20 18.3232 20H6.32324C5.77324 20 5.32324 19.55 5.32324 19C5.32324 18.45 5.77324 18 6.32324 18Z" fill="#757575"/>
</g>
<defs>
<clipPath id="clip0_10_127">
<rect width="24" height="24" fill="white" transform="translate(0.323242)"/>
</clipPath>
</defs>
</svg>
