<svg width="25" height="24" viewBox="0 0 25 24" fill="none" xmlns="http://www.w3.org/2000/svg">
<path d="M19.623 16.5L16.423 13.3C16.5564 13.0167 16.6564 12.7293 16.723 12.438C16.7897 12.146 16.823 11.8333 16.823 11.5C16.823 10.25 16.3857 9.18734 15.511 8.31201C14.6357 7.43734 13.573 7.00001 12.323 7.00001C11.9897 7.00001 11.677 7.03334 11.385 7.10001C11.0937 7.16667 10.8064 7.26667 10.523 7.40001L7.97305 4.85001C8.65638 4.56667 9.35638 4.35401 10.073 4.21201C10.7897 4.07067 11.5397 4.00001 12.323 4.00001C14.7064 4.00001 16.848 4.62901 18.748 5.88701C20.648 7.14567 22.073 8.78334 23.023 10.8C23.073 10.8833 23.1064 10.9873 23.123 11.112C23.1397 11.2373 23.148 11.3667 23.148 11.5C23.148 11.6333 23.1357 11.7623 23.111 11.887C23.0857 12.0123 23.0564 12.1167 23.023 12.2C22.6397 13.05 22.1607 13.8417 21.586 14.575C21.0107 15.3083 20.3564 15.95 19.623 16.5ZM19.423 21.9L15.923 18.45C15.3397 18.6333 14.7524 18.771 14.161 18.863C13.569 18.9543 12.9564 19 12.323 19C9.93971 19 7.79805 18.371 5.89805 17.113C3.99805 15.8543 2.57305 14.2167 1.62305 12.2C1.57305 12.1167 1.53971 12.0123 1.52305 11.887C1.50638 11.7623 1.49805 11.6333 1.49805 11.5C1.49805 11.3667 1.50638 11.2417 1.52305 11.125C1.53971 11.0083 1.57305 10.9083 1.62305 10.825C1.97305 10.075 2.38971 9.38334 2.87305 8.75001C3.35638 8.11667 3.88971 7.53334 4.47305 7.00001L2.39805 4.90001C2.21471 4.71667 2.12305 4.48734 2.12305 4.21201C2.12305 3.93734 2.22305 3.70001 2.42305 3.50001C2.60638 3.31667 2.83971 3.22501 3.12305 3.22501C3.40638 3.22501 3.63971 3.31667 3.82305 3.50001L20.823 20.5C21.0064 20.6833 21.1024 20.9127 21.111 21.188C21.119 21.4627 21.023 21.7 20.823 21.9C20.6397 22.0833 20.4064 22.175 20.123 22.175C19.8397 22.175 19.6064 22.0833 19.423 21.9ZM12.323 16C12.5064 16 12.677 15.9917 12.835 15.975C12.9937 15.9583 13.1647 15.925 13.348 15.875L7.94805 10.475C7.89805 10.6583 7.86471 10.8293 7.84805 10.988C7.83138 11.146 7.82305 11.3167 7.82305 11.5C7.82305 12.75 8.26038 13.8127 9.13505 14.688C10.0104 15.5627 11.073 16 12.323 16ZM14.973 11.85L11.973 8.85001C12.923 8.70001 13.698 8.96667 14.298 9.65001C14.898 10.3333 15.123 11.0667 14.973 11.85V11.85Z" fill="#757575"/>
</svg>
