<svg width="25" height="24" viewBox="0 0 25 24" fill="none" xmlns="http://www.w3.org/2000/svg">
<g clip-path="url(#clip0_10_130)">
<path d="M12.3232 4C7.32324 4 3.05324 7.11 1.32324 11.5C3.05324 15.89 7.32324 19 12.3232 19C17.3232 19 21.5932 15.89 23.3232 11.5C21.5932 7.11 17.3232 4 12.3232 4ZM12.3232 16.5C9.56324 16.5 7.32324 14.26 7.32324 11.5C7.32324 8.74 9.56324 6.5 12.3232 6.5C15.0832 6.5 17.3232 8.74 17.3232 11.5C17.3232 14.26 15.0832 16.5 12.3232 16.5ZM12.3232 8.5C10.6632 8.5 9.32324 9.84 9.32324 11.5C9.32324 13.16 10.6632 14.5 12.3232 14.5C13.9832 14.5 15.3232 13.16 15.3232 11.5C15.3232 9.84 13.9832 8.5 12.3232 8.5Z" fill="#757575"/>
</g>
<defs>
<clipPath id="clip0_10_130">
<rect width="24" height="24" fill="white" transform="translate(0.323242)"/>
</clipPath>
</defs>
</svg>
