<svg width="25" height="24" viewBox="0 0 25 24" fill="none" xmlns="http://www.w3.org/2000/svg">
<g clip-path="url(#clip0_10_135)">
<path d="M12.3232 2C6.82324 2 2.32324 6.5 2.32324 12C2.32324 17.5 6.82324 22 12.3232 22C17.8232 22 22.3232 17.5 22.3232 12C22.3232 6.5 17.8232 2 12.3232 2ZM15.8732 15.8L11.7932 13.29C11.4932 13.11 11.3132 12.79 11.3132 12.44V7.75C11.3232 7.34 11.6632 7 12.0732 7C12.4832 7 12.8232 7.34 12.8232 7.75V12.2L16.6632 14.51C17.0232 14.73 17.1432 15.2 16.9232 15.56C16.7032 15.91 16.2332 16.02 15.8732 15.8Z" fill="#757575"/>
</g>
<defs>
<clipPath id="clip0_10_135">
<rect width="24" height="24" fill="white" transform="translate(0.323242)"/>
</clipPath>
</defs>
</svg>
