<svg width="594" height="389" viewBox="0 0 594 389" fill="none" xmlns="http://www.w3.org/2000/svg">
<g clip-path="url(#clip0_9_1364)">
<path d="M186.011 65.106L99.262 321.048L51.893 181.063H0L69 385.525H129.518L238.049 65.106H186.011Z" fill="white"/>
<path d="M325.645 303.235C325.645 312.662 324.113 320.227 321.051 325.93C318.405 331.205 314.212 335.546 309.033 338.374C304.129 340.955 298.666 342.29 293.125 342.262C284.696 342.321 276.568 339.131 270.43 333.354C263.874 327.414 260.599 317.375 260.603 303.236V181.065H204.891V300.972C204.891 318.319 207.671 333.543 213.232 346.644C218.792 359.745 228.007 369.974 240.876 377.329C253.742 384.68 271.159 388.356 293.125 388.357C315.091 388.358 332.506 384.682 345.37 377.329C358.241 369.976 367.457 359.747 373.017 346.644C378.577 333.541 381.358 318.317 381.36 300.972V181.065H325.645V303.235Z" fill="white"/>
<path d="M453.752 339.716V304.93H533.926V260.53H454.178V226.595H549.478L549.761 181.063H398.752V385.528H550.052V339.716H453.752Z" fill="white"/>
<path d="M586.827 0.507911L585.056 0.000911182C581.69 -0.0590888 576.325 2.22391 573.443 5.45091C574.62 8.65091 574.331 13.5509 572.553 20.3939C563.777 54.7379 526.153 116.267 499.372 140.086L495.297 143.692L496.166 138.778C499.21 121.195 511.935 94.0269 524.694 67.7329C525.848 65.4269 525.939 63.5329 524.986 61.9099C523.302 59.0779 518.665 57.7199 515.065 57.6579C514.321 57.6369 513.577 57.6824 512.842 57.7939C506.751 58.6599 506.168 59.7759 503.642 64.4359C502.942 65.7499 502.135 67.2609 501.015 69.0659L500.975 69.1429L500.911 69.2149C486.119 89.5149 470.593 110.285 452.037 134.525L447.011 141.091L448.55 133.491C448.984 131.273 451.396 126.361 455.597 117.905C461.575 105.805 469.784 89.2369 472.397 78.2749C474.692 68.8839 473.757 61.2139 469.697 56.0639C468.305 54.2982 466.547 52.854 464.545 51.83C462.543 50.806 460.344 50.2265 458.097 50.1309C457.691 50.1227 457.285 50.141 456.881 50.1859H456.751C444.705 50.5249 431.732 54.5989 419.198 58.5319L414.665 59.9469L417.149 55.9869C417.568 55.3438 418.024 54.7255 418.514 54.1349C419.046 53.5702 419.477 52.9176 419.787 52.2059C419.93 51.8219 419.984 51.4106 419.945 51.0027C419.906 50.5948 419.776 50.2011 419.563 49.8509C418.939 49.0629 417.398 48.5859 415.263 48.5509C413.26 48.5559 411.264 48.7816 409.31 49.2239C403.939 50.3239 388.936 65.5999 373.062 89.3119L371.965 90.9159L370.365 90.1879C369.741 89.8973 369.06 89.7484 368.372 89.7519C367.982 89.7547 367.593 89.7817 367.207 89.8329C366.615 89.9219 364.546 91.7619 361.791 96.8419C344.178 130.68 318.124 166.721 306.051 173.942L303.162 175.666L303.181 172.666C303.233 167.447 303.947 162.256 305.308 157.218C309.142 142.2 317.234 125.256 324.386 110.272C326.523 105.756 328.559 101.516 330.328 97.6199C333.181 91.2199 333.206 84.6609 330.349 80.1069C329.263 78.3773 327.749 76.957 325.954 75.9832C324.158 75.0094 322.142 74.5151 320.1 74.5479C318.523 74.536 316.951 74.7269 315.423 75.1159C301.185 83.4979 276.267 112.777 259.189 135.416L248.14 150.08L255.828 133.955C262.817 119.318 268.708 108.014 273.347 100.364C275.016 97.4919 276.276 95.4889 277.205 94.0539C279.061 91.1539 279.061 91.1539 278.759 90.3279C277.641 87.2279 272.159 85.3099 267.516 85.2279C266.81 85.2099 266.104 85.2477 265.404 85.3409C263.776 85.6307 262.227 86.2576 260.856 87.1816C259.485 88.1055 258.322 89.306 257.442 90.7059C245.12 112.479 219.611 162.886 213.728 185.874C210.856 194.98 217.428 201.524 222.523 203.715L222.644 203.768L222.763 203.845C223.874 204.609 225.172 205.056 226.518 205.137C228.606 205.173 230.308 203.802 231.596 201.024L231.673 200.875L231.773 200.726L234.49 196.647C269.756 143.981 284.361 122.174 301.16 102.833L309.865 92.8329L304.421 104.419C300.084 113.676 292.15 131.846 287.611 149.604C283.677 164.894 284.311 177.815 289.244 184.155C290.33 185.543 291.724 186.661 293.316 187.418C294.907 188.175 296.653 188.552 298.416 188.519C299.443 188.535 300.47 188.468 301.486 188.319C309.272 187.18 321.064 180.382 327.747 173.169C330.645 169.933 333.375 166.55 335.926 163.033L339.613 158.019L339.472 163.719C339.172 176.146 348.91 184.674 358.198 184.836C359.076 184.853 359.953 184.793 360.821 184.657C362.394 184.379 363.917 183.873 365.345 183.157L367.229 182.09C384.316 172.359 423.357 116.608 430.987 86.7979C432.087 82.4889 432.656 76.9199 432.217 74.4349L431.993 73.0059L433.481 72.2569C434.054 71.9669 434.688 71.6269 435.344 71.3139C440.109 68.8699 446.051 65.8229 450.538 65.9019C451.428 65.8631 452.316 66.026 453.135 66.3783C453.954 66.7307 454.682 67.2635 455.266 67.9369C459 71.9539 453.182 83.2849 441.779 104.574C433.666 119.666 424.498 136.791 421.254 149.442C420.537 152.08 420.449 154.849 420.999 157.527C421.549 160.205 422.72 162.716 424.418 164.858C427.465 168.765 432.012 171.245 436.266 171.319C436.849 171.327 437.431 171.295 438.01 171.225C443.058 170.488 455.772 155.425 475.767 126.46L477.298 124.26L482.378 116.919L480.858 125.173C476.721 147.589 475.082 160.345 489.606 161.573C489.795 161.597 489.986 161.608 490.177 161.607C511.392 161.98 555.383 96.3069 573.366 64.4309C582.472 47.9809 588.345 34.3509 591.292 22.8179C594.765 9.30091 594.932 2.85191 586.827 0.507911ZM418.427 84.3779C414.859 94.6459 401.753 116.255 390.378 133.116C374.668 156.33 364.562 168.086 360.309 168.016C360.145 168.009 359.982 167.989 359.821 167.956C356.321 167.145 357.821 161.916 358.463 159.702C361.742 148.227 373.487 125.543 378.369 116.322C382.423 108.715 386.469 101.43 389.795 95.8099C395.595 85.9809 396.165 85.9909 397.595 86.0169H397.778L397.978 86.0699C398.378 86.1765 398.79 86.2343 399.204 86.2419C402.048 86.2929 406.327 84.3919 409.755 82.8759C412.982 81.4559 414.873 80.6639 416.333 80.6899C416.719 80.6759 417.102 80.7535 417.452 80.9164C417.801 81.0793 418.108 81.3228 418.345 81.6269C418.588 82.0424 418.722 82.5124 418.736 82.9935C418.749 83.4747 418.641 83.9515 418.422 84.3799" fill="#FF4E00"/>
</g>
<defs>
<clipPath id="clip0_9_1364">
<rect width="593.555" height="388.357" fill="white" transform="translate(0 -0.000244141)"/>
</clipPath>
</defs>
</svg>
