<svg width="594" height="389" viewBox="0 0 594 389" fill="none" xmlns="http://www.w3.org/2000/svg">
<g clip-path="url(#clip0_9_1357)">
<path d="M186.011 65.1062L99.262 321.048L51.893 181.063H0L69 385.525H129.518L238.049 65.1062H186.011Z" fill="#302D2F"/>
<path d="M325.645 303.235C325.645 312.663 324.113 320.228 321.051 325.93C318.405 331.205 314.212 335.547 309.033 338.374C304.129 340.955 298.666 342.291 293.125 342.262C284.696 342.321 276.568 339.131 270.43 333.354C263.874 327.414 260.599 317.375 260.603 303.236V181.065H204.891V300.972C204.891 318.319 207.671 333.543 213.232 346.644C218.792 359.746 228.007 369.974 240.876 377.329C253.742 384.681 271.159 388.357 293.125 388.357C315.091 388.358 332.506 384.682 345.37 377.329C358.241 369.976 367.457 359.748 373.017 346.644C378.577 333.541 381.358 318.317 381.36 300.972V181.065H325.645V303.235Z" fill="#302D2F"/>
<path d="M453.752 339.716V304.93H533.926V260.53H454.178V226.595H549.478L549.761 181.063H398.752V385.528H550.052V339.716H453.752Z" fill="#302D2F"/>
<path d="M586.827 0.508155L585.056 0.00115532C581.69 -0.0588447 576.325 2.22416 573.443 5.45116C574.62 8.65116 574.331 13.5512 572.553 20.3942C563.777 54.7382 526.153 116.267 499.372 140.086L495.297 143.692L496.166 138.778C499.21 121.195 511.935 94.0272 524.694 67.7332C525.848 65.4272 525.939 63.5332 524.986 61.9102C523.302 59.0782 518.665 57.7202 515.065 57.6582C514.321 57.6372 513.577 57.6827 512.842 57.7942C506.751 58.6602 506.168 59.7761 503.642 64.4361C502.942 65.7501 502.135 67.2612 501.015 69.0662L500.975 69.1432L500.911 69.2151C486.119 89.5151 470.593 110.285 452.037 134.525L447.011 141.091L448.55 133.491C448.984 131.273 451.396 126.361 455.597 117.905C461.575 105.805 469.784 89.2372 472.397 78.2752C474.692 68.8842 473.757 61.2142 469.697 56.0642C468.305 54.2984 466.547 52.8542 464.545 51.8302C462.543 50.8063 460.344 50.2267 458.097 50.1312C457.691 50.1229 457.285 50.1413 456.881 50.1862H456.751C444.705 50.5252 431.732 54.5992 419.198 58.5322L414.665 59.9472L417.149 55.9872C417.568 55.3441 418.024 54.7257 418.514 54.1352C419.046 53.5705 419.477 52.9178 419.787 52.2062C419.93 51.8222 419.984 51.4108 419.945 51.003C419.906 50.5951 419.776 50.2013 419.563 49.8512C418.939 49.0632 417.398 48.5862 415.263 48.5512C413.26 48.5562 411.264 48.7819 409.31 49.2242C403.939 50.3242 388.936 65.6001 373.062 89.3121L371.965 90.9162L370.365 90.1881C369.741 89.8976 369.06 89.7487 368.372 89.7522C367.982 89.7549 367.593 89.782 367.207 89.8332C366.615 89.9222 364.546 91.7622 361.791 96.8422C344.178 130.68 318.124 166.721 306.051 173.942L303.162 175.666L303.181 172.666C303.233 167.448 303.947 162.257 305.308 157.218C309.142 142.2 317.234 125.256 324.386 110.272C326.523 105.756 328.559 101.516 330.328 97.6202C333.181 91.2202 333.206 84.6612 330.349 80.1072C329.263 78.3775 327.749 76.9572 325.954 75.9835C324.158 75.0097 322.142 74.5153 320.1 74.5481C318.523 74.5363 316.951 74.7272 315.423 75.1161C301.185 83.4981 276.267 112.777 259.189 135.416L248.14 150.08L255.828 133.955C262.817 119.318 268.708 108.014 273.347 100.364C275.016 97.4922 276.276 95.4892 277.205 94.0542C279.061 91.1542 279.061 91.1542 278.759 90.3282C277.641 87.2282 272.159 85.3101 267.516 85.2281C266.81 85.2101 266.104 85.2479 265.404 85.3411C263.776 85.6309 262.227 86.2579 260.856 87.1818C259.485 88.1057 258.322 89.3062 257.442 90.7062C245.12 112.479 219.611 162.886 213.728 185.874C210.856 194.98 217.428 201.524 222.523 203.715L222.644 203.768L222.763 203.845C223.874 204.609 225.172 205.056 226.518 205.137C228.606 205.173 230.308 203.802 231.596 201.024L231.673 200.875L231.773 200.726L234.49 196.647C269.756 143.981 284.361 122.174 301.16 102.833L309.865 92.8332L304.421 104.419C300.084 113.676 292.15 131.846 287.611 149.604C283.677 164.894 284.311 177.815 289.244 184.155C290.33 185.544 291.724 186.661 293.316 187.418C294.907 188.176 296.653 188.552 298.416 188.519C299.443 188.535 300.47 188.468 301.486 188.319C309.272 187.18 321.064 180.382 327.747 173.169C330.645 169.933 333.375 166.55 335.926 163.033L339.613 158.019L339.472 163.719C339.172 176.146 348.91 184.674 358.198 184.836C359.076 184.853 359.953 184.793 360.821 184.657C362.394 184.379 363.917 183.873 365.345 183.157L367.229 182.09C384.316 172.359 423.357 116.608 430.987 86.7981C432.087 82.4891 432.656 76.9202 432.217 74.4352L431.993 73.0061L433.481 72.2571C434.054 71.9671 434.688 71.6272 435.344 71.3142C440.109 68.8702 446.051 65.8232 450.538 65.9022C451.428 65.8633 452.316 66.0262 453.135 66.3786C453.954 66.731 454.682 67.2638 455.266 67.9371C459 71.9541 453.182 83.2852 441.779 104.574C433.666 119.666 424.498 136.791 421.254 149.442C420.537 152.08 420.449 154.849 420.999 157.527C421.549 160.205 422.72 162.716 424.418 164.858C427.465 168.765 432.012 171.245 436.266 171.319C436.849 171.327 437.431 171.296 438.01 171.225C443.058 170.488 455.772 155.425 475.767 126.46L477.298 124.26L482.378 116.919L480.858 125.173C476.721 147.589 475.082 160.345 489.606 161.573C489.795 161.597 489.986 161.609 490.177 161.607C511.392 161.98 555.383 96.3072 573.366 64.4312C582.472 47.9812 588.345 34.3512 591.292 22.8182C594.765 9.30116 594.932 2.85216 586.827 0.508155ZM418.427 84.3782C414.859 94.6462 401.753 116.255 390.378 133.116C374.668 156.33 364.562 168.086 360.309 168.016C360.145 168.01 359.982 167.99 359.821 167.956C356.321 167.145 357.821 161.916 358.463 159.702C361.742 148.227 373.487 125.543 378.369 116.322C382.423 108.715 386.469 101.43 389.795 95.8102C395.595 85.9811 396.165 85.9912 397.595 86.0172H397.778L397.978 86.0702C398.378 86.1768 398.79 86.2345 399.204 86.2421C402.048 86.2931 406.327 84.3922 409.755 82.8762C412.982 81.4562 414.873 80.6642 416.333 80.6902C416.719 80.6761 417.102 80.7538 417.452 80.9166C417.801 81.0795 418.108 81.323 418.345 81.6272C418.588 82.0426 418.722 82.5126 418.736 82.9938C418.749 83.4749 418.641 83.9517 418.422 84.3801" fill="#FF4E00"/>
</g>
<defs>
<clipPath id="clip0_9_1357">
<rect width="593.555" height="388.357" fill="white"/>
</clipPath>
</defs>
</svg>
